STARTFONT 2.1
FONT -FontForge-Fredoka One-Book-R-Normal--32-320-72-72-P-184-ISO10646-1
SIZE 32 72 72
FONTBOUNDINGBOX 42 39 -4 -8
COMMENT "Generated by fontforge, http://fontforge.sourceforge.net"
COMMENT "Copyright (c) 2011 Milena B Brandao (milenabbrandao@gmail.com), with Reserved Font Name "Fredoka""
STARTPROPERTIES 39
FOUNDRY "FontForge"
FAMILY_NAME "Fredoka One"
WEIGHT_NAME "Book"
SLANT "R"
SETWIDTH_NAME "Normal"
ADD_STYLE_NAME ""
PIXEL_SIZE 32
POINT_SIZE 320
RESOLUTION_X 72
RESOLUTION_Y 72
SPACING "P"
AVERAGE_WIDTH 184
CHARSET_REGISTRY "ISO10646"
CHARSET_ENCODING "1"
FONTNAME_REGISTRY ""
CHARSET_COLLECTIONS "ISO10646-1"
FONT_NAME "FredokaOne-Regular"
FACE_NAME "Fredoka One"
COPYRIGHT "Copyright (c) 2011 Milena B Brandao (milenabbrandao@gmail.com), with Reserved Font Name "Fredoka""
FONT_VERSION "1.001"
FONT_ASCENT 26
FONT_DESCENT 6
UNDERLINE_POSITION -3
UNDERLINE_THICKNESS 2
X_HEIGHT 16
CAP_HEIGHT 23
RAW_ASCENT 800
RAW_DESCENT 200
NORM_SPACE 8
RELATIVE_WEIGHT 40
RELATIVE_SETWIDTH 50
SUPERSCRIPT_X 0
SUPERSCRIPT_Y 15
SUPERSCRIPT_SIZE 20
SUBSCRIPT_X 0
SUBSCRIPT_Y 4
SUBSCRIPT_SIZE 20
AVG_LOWERCASE_WIDTH 182
AVG_UPPERCASE_WIDTH 220
ENDPROPERTIES
CHARS 235
STARTCHAR space
ENCODING 32
SWIDTH 253 0
DWIDTH 8 0
BBX 1 1 0 0
BITMAP
00
ENDCHAR
STARTCHAR exclam
ENCODING 33
SWIDTH 267 0
DWIDTH 9 0
BBX 6 24 1 0
BITMAP
10
7C
FC
FC
FC
FC
FC
FC
FC
FC
FC
FC
FC
FC
7C
10
00
00
78
FC
FC
FC
FC
7C
ENDCHAR
STARTCHAR quotedbl
ENCODING 34
SWIDTH 429 0
DWIDTH 14 0
BBX 12 11 1 12
BITMAP
F9F0
F9F0
F9F0
F9F0
F9F0
F9F0
F1F0
F1E0
70E0
70E0
2040
ENDCHAR
STARTCHAR numbersign
ENCODING 35
SWIDTH 749 0
DWIDTH 24 0
BBX 23 23 0 0
BITMAP
01F078
01F0F8
01E0F8
01E0F8
03E0F0
03E0F0
3FFFFE
3FFFFE
3FFFFE
3FFFFE
07C1E0
07C1E0
07C3E0
3FFFF8
7FFFFC
7FFFFC
FFFFFC
7FFFF8
0F87C0
0F87C0
0F07C0
0F07C0
0E0780
ENDCHAR
STARTCHAR dollar
ENCODING 36
SWIDTH 475 0
DWIDTH 15 0
BBX 13 28 1 -3
BITMAP
0700
0700
0700
0700
0F80
3FE0
7FF0
7FF0
FDF0
F860
F800
FE00
7FC0
7FF0
1FF8
03F8
00F8
7078
F8F8
FFF8
FFF8
7FF0
1FC0
0700
0700
0700
0700
0200
ENDCHAR
STARTCHAR percent
ENCODING 37
SWIDTH 838 0
DWIDTH 27 0
BBX 25 26 1 -1
BITMAP
00003000
06007000
3F80F000
7FC0E000
7FE1E000
FBE1C000
F1E3C000
F0E38000
F1E70000
7BE70000
7FEE0000
3FCE0000
1F9C0000
001C7C00
0039FE00
0039FF00
0073FF00
0073C700
00E38780
01E38780
01C3C700
03C3FF00
0381FF00
0781FE00
07007C00
02000000
ENDCHAR
STARTCHAR ampersand
ENCODING 38
SWIDTH 748 0
DWIDTH 24 0
BBX 22 25 1 0
BITMAP
00C000
07FC00
0FFE00
1FFE00
3FFF00
3E1F00
3E1F00
3E3F00
3FFE00
1FFE00
1FFC00
1FF000
1FE000
3FE0F0
7FE0F8
FFF1F8
FFF9F0
FDFFF0
F8FFF0
FC7FE0
FFFFFC
FFFFFC
7FFFFC
3FFFFC
1FF0FC
ENDCHAR
STARTCHAR quotesingle
ENCODING 39
SWIDTH 208 0
DWIDTH 7 0
BBX 5 11 1 12
BITMAP
F8
F8
F8
F8
F8
F8
F0
F0
70
70
20
ENDCHAR
STARTCHAR parenleft
ENCODING 40
SWIDTH 384 0
DWIDTH 12 0
BBX 11 32 1 -7
BITMAP
01C0
07E0
0FE0
1FE0
1F00
3E00
3C00
7C00
7C00
7800
F800
F800
F800
F800
F800
F800
F800
F800
F800
F800
F800
F800
7800
7C00
7C00
7C00
3E00
3E00
1FC0
0FE0
0FE0
03E0
ENDCHAR
STARTCHAR parenright
ENCODING 41
SWIDTH 384 0
DWIDTH 12 0
BBX 11 32 0 -7
BITMAP
7000
7C00
FE00
7F00
1F80
0F80
07C0
07C0
03C0
03E0
03E0
03E0
03E0
03E0
03E0
01E0
01E0
03E0
03E0
03E0
03E0
03E0
03E0
03C0
07C0
07C0
0780
0F80
7F00
7F00
FE00
7800
ENDCHAR
STARTCHAR asterisk
ENCODING 42
SWIDTH 503 0
DWIDTH 16 0
BBX 16 15 0 9
BITMAP
03C0
03E0
07E0
27E4
7FFE
7FFE
FFFF
7FFE
3FFC
0FF0
1FF8
3FFC
3FFC
1E78
0C30
ENDCHAR
STARTCHAR plus
ENCODING 43
SWIDTH 527 0
DWIDTH 17 0
BBX 15 15 1 1
BITMAP
07C0
07C0
07C0
07C0
07C0
FFFE
FFFE
FFFE
FFFE
7FFC
07C0
07C0
07C0
07C0
0380
ENDCHAR
STARTCHAR comma
ENCODING 44
SWIDTH 238 0
DWIDTH 8 0
BBX 6 11 1 -5
BITMAP
78
FC
FC
FC
FC
7C
38
78
70
F0
C0
ENDCHAR
STARTCHAR hyphen
ENCODING 45
SWIDTH 433 0
DWIDTH 14 0
BBX 12 6 1 4
BITMAP
3FC0
FFF0
FFF0
FFF0
FFF0
3FE0
ENDCHAR
STARTCHAR period
ENCODING 46
SWIDTH 237 0
DWIDTH 8 0
BBX 6 6 1 0
BITMAP
78
FC
FC
FC
FC
78
ENDCHAR
STARTCHAR slash
ENCODING 47
SWIDTH 526 0
DWIDTH 17 0
BBX 16 27 0 -2
BITMAP
000E
001F
001F
003F
003F
007E
007E
00FC
00FC
01F8
01F8
03F0
03F0
07E0
07E0
0FC0
0FC0
0F80
1F80
1F00
3F00
3E00
7E00
7C00
FC00
7C00
1800
ENDCHAR
STARTCHAR zero
ENCODING 48
SWIDTH 608 0
DWIDTH 19 0
BBX 18 24 1 0
BITMAP
03E000
0FF800
1FFE00
3FFE00
7FFF00
7FFF00
7E3F80
FC1F80
FC0F80
FC0F80
FC0FC0
F80FC0
F80FC0
F80FC0
FC0FC0
FC0F80
FC1F80
FE1F80
7F3F80
7FFF00
3FFF00
3FFE00
1FFC00
07F800
ENDCHAR
STARTCHAR one
ENCODING 49
SWIDTH 407 0
DWIDTH 13 0
BBX 12 23 0 0
BITMAP
01E0
03F0
07F0
1FF0
3FF0
7FF0
7FF0
FFF0
7FF0
3BF0
03F0
03F0
03F0
03F0
03F0
03F0
03F0
03F0
03F0
03F0
03F0
03F0
01E0
ENDCHAR
STARTCHAR two
ENCODING 50
SWIDTH 609 0
DWIDTH 19 0
BBX 18 24 1 0
BITMAP
03E000
0FF800
3FFC00
3FFE00
7FFF00
FFFF00
FE3F80
FC1F80
FC1F80
F81F80
F81F80
303F80
007F00
01FF00
03FE00
0FFC00
3FF800
7FE000
7FFF00
FFFFC0
FFFFC0
FFFFC0
FFFFC0
7FFF80
ENDCHAR
STARTCHAR three
ENCODING 51
SWIDTH 608 0
DWIDTH 19 0
BBX 18 24 1 0
BITMAP
01E000
0FFC00
1FFE00
3FFF00
7FFF00
7FFF80
7E1F80
7C1F80
181F80
01FF80
03FF00
03FE00
03FF00
03FF80
003F80
780FC0
F80FC0
FC0FC0
FE1F80
FFFF80
7FFF80
3FFF00
1FFE00
0FF800
ENDCHAR
STARTCHAR four
ENCODING 52
SWIDTH 592 0
DWIDTH 19 0
BBX 18 24 0 0
BITMAP
040000
0F0F80
1F8FC0
1F8FC0
1F8FC0
1F0FC0
3F0FC0
3F0FC0
3F0FC0
3E0FC0
7E0FC0
7E0FC0
7FFFC0
7FFFC0
FFFFC0
7FFFC0
7FFFC0
000FC0
000FC0
000FC0
000FC0
000FC0
000FC0
000780
ENDCHAR
STARTCHAR five
ENCODING 53
SWIDTH 530 0
DWIDTH 17 0
BBX 16 24 0 0
BITMAP
06C0
1FFE
3FFF
3FFF
3FFF
3FFE
3E00
3E00
7E80
7FF0
7FF8
7FFC
7FFE
7FFF
3E7F
003F
003F
383F
7C7F
7FFF
FFFE
7FFC
3FF8
0FF0
ENDCHAR
STARTCHAR six
ENCODING 54
SWIDTH 560 0
DWIDTH 18 0
BBX 16 23 1 0
BITMAP
00FE
03FE
0FFE
1FFE
1FFE
3FE0
7F00
7E00
7E00
FFE0
FFF8
FFFC
FFFE
FFFF
FC3F
FC3F
FC3F
FC3F
7FFF
7FFE
3FFE
1FFC
0FF0
ENDCHAR
STARTCHAR seven
ENCODING 55
SWIDTH 561 0
DWIDTH 18 0
BBX 17 23 0 0
BITMAP
7FFF80
7FFF80
FFFF80
7FFF80
7FFF80
001F80
003F00
007F00
007E00
00FE00
01FC00
01F800
03F800
03F000
07F000
07E000
0FE000
0FC000
0FC000
0FC000
0F8000
0F8000
0F8000
ENDCHAR
STARTCHAR eight
ENCODING 56
SWIDTH 582 0
DWIDTH 19 0
BBX 17 24 1 0
BITMAP
03E000
0FF800
3FFC00
3FFE00
7FFF00
7FFF00
7C3F00
FC3F00
7E3F00
7FFF00
3FFE00
3FFC00
7FFE00
7FFF00
FE3F00
FC1F80
F81F80
FC1F80
FC3F80
FFFF00
7FFF00
3FFE00
1FFC00
0FF000
ENDCHAR
STARTCHAR nine
ENCODING 57
SWIDTH 560 0
DWIDTH 18 0
BBX 16 24 1 0
BITMAP
07C0
1FF8
3FFC
7FFC
FFFE
FEFE
FC3F
F83F
FC3F
FEFF
FFFF
7FFF
3FFF
1FFF
013F
007E
00FE
01FC
3FFC
7FF8
FFF0
FFE0
7FC0
7E00
ENDCHAR
STARTCHAR colon
ENCODING 58
SWIDTH 238 0
DWIDTH 8 0
BBX 6 16 1 0
BITMAP
F8
FC
FC
FC
FC
78
00
00
00
00
78
FC
FC
FC
FC
78
ENDCHAR
STARTCHAR semicolon
ENCODING 59
SWIDTH 237 0
DWIDTH 8 0
BBX 6 21 1 -5
BITMAP
F8
FC
FC
FC
FC
78
00
00
00
00
78
FC
FC
FC
FC
7C
38
78
70
F0
C0
ENDCHAR
STARTCHAR less
ENCODING 60
SWIDTH 627 0
DWIDTH 20 0
BBX 20 22 0 0
BITMAP
0000C0
0003E0
000FE0
001FF0
007FE0
01FF80
03FF00
0FFC00
3FF000
7FE000
7F8000
FF8000
7FE000
3FF000
0FFC00
03FF00
01FF80
007FE0
001FF0
000FE0
0003E0
0000C0
ENDCHAR
STARTCHAR equal
ENCODING 61
SWIDTH 478 0
DWIDTH 15 0
BBX 14 12 1 1
BITMAP
FFF8
FFF8
FFFC
FFF8
7FF8
0000
0000
FFF8
FFF8
FFF8
FFF8
7FF0
ENDCHAR
STARTCHAR greater
ENCODING 62
SWIDTH 627 0
DWIDTH 20 0
BBX 20 22 0 0
BITMAP
300000
7C0000
7F0000
FF8000
7FE000
1FF800
0FFE00
03FF00
00FFC0
007FE0
001FE0
001FF0
007FE0
00FFC0
03FF00
0FFC00
1FF800
7FE000
FF8000
7F0000
7C0000
300000
ENDCHAR
STARTCHAR question
ENCODING 63
SWIDTH 512 0
DWIDTH 16 0
BBX 16 24 0 0
BITMAP
07E0
1FF8
3FFC
7FFE
7FFE
7C3E
FC3F
381F
003E
007E
01FE
03FC
03F8
03E0
03E0
0180
0000
0000
03C0
07E0
07E0
07E0
07E0
03C0
ENDCHAR
STARTCHAR at
ENCODING 64
SWIDTH 908 0
DWIDTH 29 0
BBX 27 25 1 -4
BITMAP
00FFE000
03FFF800
0FFFFE00
1FFFFF00
3F803F80
3E000F80
7C3FE7C0
787FE3C0
F8FFE1E0
F1FFE1E0
F1E3E1E0
F3E1E1E0
F3E3E1E0
F3E7E1E0
F1FFC1E0
F1FFC1E0
F0FFC3E0
787BC7C0
7C03FFC0
7E03FF80
3F01FF00
1FFCFC00
0FFC0000
07FC0000
01FC0000
ENDCHAR
STARTCHAR A
ENCODING 65
SWIDTH 765 0
DWIDTH 24 0
BBX 24 23 0 0
BITMAP
003C00
007E00
007E00
007F00
00FF00
00FF80
01FF80
01FFC0
03FFC0
03F7E0
07E7E0
07E3F0
0FC3F0
0FFFF8
1FFFF8
1FFFFC
3FFFFC
3FFFFE
7F007E
7E007F
FE003F
7C003F
3C001E
ENDCHAR
STARTCHAR B
ENCODING 66
SWIDTH 646 0
DWIDTH 21 0
BBX 19 23 1 0
BITMAP
7FFE00
FFFF00
FFFF80
FFFFC0
FFFFC0
FC0FC0
FC07C0
FC0FC0
FC1FC0
FC7FC0
FCFF80
FCFFC0
FC7FC0
FC07E0
FC07E0
FC07E0
FC07E0
FFFFE0
FFFFC0
FFFFC0
FFFF80
FFFF00
7FFC00
ENDCHAR
STARTCHAR C
ENCODING 67
SWIDTH 679 0
DWIDTH 22 0
BBX 20 24 1 0
BITMAP
001800
01FF80
07FFE0
0FFFF0
1FFFF0
3FFFF0
7F83E0
7F00C0
FE0000
FC0000
FC0000
FC0000
F80000
FC0000
FC0000
FC0000
7E0000
7F01C0
7FE7E0
3FFFF0
1FFFF0
0FFFE0
03FFC0
00FF00
ENDCHAR
STARTCHAR D
ENCODING 68
SWIDTH 704 0
DWIDTH 23 0
BBX 21 23 1 0
BITMAP
7FFC00
FFFE00
FFFF80
FFFFC0
FFFFE0
FC1FE0
FC07F0
FC03F0
FC03F0
FC01F8
FC01F8
FC01F8
FC01F8
FC01F8
FC03F0
FC07F0
FC0FE0
FFFFE0
FFFFC0
FFFF80
FFFF00
FFFE00
7FF000
ENDCHAR
STARTCHAR E
ENCODING 69
SWIDTH 638 0
DWIDTH 20 0
BBX 19 23 1 0
BITMAP
7FFFC0
FFFFE0
FFFFE0
FFFFE0
FFFFC0
FC0000
FC0000
FC0000
FFF800
FFFE00
FFFE00
FFFE00
FFFE00
FFFE00
FC0000
FC0000
FC0000
FFFF80
FFFFC0
FFFFE0
FFFFE0
FFFFC0
7FFFC0
ENDCHAR
STARTCHAR F
ENCODING 70
SWIDTH 637 0
DWIDTH 20 0
BBX 19 23 1 0
BITMAP
7FFFC0
FFFFE0
FFFFE0
FFFFE0
FFFFC0
FC0000
FC0000
FC0000
FFF800
FFFE00
FFFE00
FFFE00
FFFE00
FFFE00
FC0000
FC0000
FC0000
FC0000
FC0000
FC0000
FC0000
FC0000
780000
ENDCHAR
STARTCHAR G
ENCODING 71
SWIDTH 714 0
DWIDTH 23 0
BBX 21 24 1 0
BITMAP
007E00
03FF80
07FFE0
1FFFF0
3FFFF0
3FFFE0
7F81E0
7E0080
FC0000
FC0000
FC1FF0
F83FF0
F83FF8
FC3FF8
FC1FF8
FC01F8
7E01F8
7F01F8
3FE7F8
3FFFF8
1FFFF0
0FFFF0
07FFE0
01FF80
ENDCHAR
STARTCHAR H
ENCODING 72
SWIDTH 699 0
DWIDTH 22 0
BBX 20 23 1 0
BITMAP
7C01F0
FC03F0
FC03F0
FC03F0
FC03F0
FC03F0
FC03F0
FC03F0
FC03F0
FFFFF0
FFFFF0
FFFFF0
FFFFF0
FFFFF0
FC03F0
FC03F0
FC03F0
FC03F0
FC03F0
FC03F0
FC03F0
FC01F0
7801E0
ENDCHAR
STARTCHAR I
ENCODING 73
SWIDTH 257 0
DWIDTH 8 0
BBX 6 23 1 0
BITMAP
7C
FC
FC
FC
FC
FC
FC
FC
FC
FC
FC
FC
FC
FC
FC
FC
FC
FC
FC
FC
FC
FC
78
ENDCHAR
STARTCHAR J
ENCODING 74
SWIDTH 549 0
DWIDTH 18 0
BBX 16 23 0 0
BITMAP
001F
001F
001F
001F
001F
001F
001F
001F
001F
001F
001F
001F
001F
001F
001F
003F
383F
7EFF
FFFE
7FFE
7FFC
3FF8
0FF0
ENDCHAR
STARTCHAR K
ENCODING 75
SWIDTH 639 0
DWIDTH 20 0
BBX 18 24 1 0
BITMAP
000300
7C0780
FC0FC0
FC1FC0
FC3FC0
FC7F80
FC7F00
FCFE00
FDFC00
FFF800
FFF000
FFE000
FFE000
FFF000
FFF800
FFFC00
FDFE00
FCFF00
FC7F80
FC3F80
FC1FC0
FC0FC0
FC07C0
780780
ENDCHAR
STARTCHAR L
ENCODING 76
SWIDTH 587 0
DWIDTH 19 0
BBX 17 23 1 0
BITMAP
7C0000
FC0000
FC0000
FC0000
FC0000
FC0000
FC0000
FC0000
FC0000
FC0000
FC0000
FC0000
FC0000
FC0000
FC0000
FC0000
FC0000
FC0000
FFFF00
FFFF80
FFFF80
FFFF80
7FFF80
ENDCHAR
STARTCHAR M
ENCODING 77
SWIDTH 870 0
DWIDTH 28 0
BBX 26 23 1 0
BITMAP
7C000F80
FC001FC0
FE001FC0
FF003FC0
FF807FC0
FFC0FFC0
FFC1FFC0
FFE1FFC0
FFF3FFC0
FFFFFFC0
FDFFEFC0
FDFFCFC0
FCFFCFC0
FC7F8FC0
FC3F0FC0
FC3E0FC0
FC1C0FC0
FC000FC0
FC000FC0
FC000FC0
FC000FC0
FC000F80
78000780
ENDCHAR
STARTCHAR N
ENCODING 78
SWIDTH 720 0
DWIDTH 23 0
BBX 21 23 1 0
BITMAP
7C01F0
FC01F8
FE01F8
FF01F8
FF81F8
FF81F8
FFC1F8
FFE1F8
FFF1F8
FFF1F8
FDF9F8
FDFDF8
FCFFF8
FC7FF8
FC3FF8
FC3FF8
FC1FF8
FC0FF8
FC07F8
FC07F8
FC03F8
FC01F8
7800F0
ENDCHAR
STARTCHAR O
ENCODING 79
SWIDTH 775 0
DWIDTH 25 0
BBX 23 24 1 0
BITMAP
007C00
03FF80
07FFC0
1FFFE0
1FFFF0
3FFFF8
7F83FC
7F01FC
FE00FC
FC007E
FC007E
FC007E
FC007E
FC007E
FC007E
FC007E
FE00FC
7F01FC
7FC7F8
3FFFF8
1FFFF0
0FFFE0
07FFC0
01FF00
ENDCHAR
STARTCHAR P
ENCODING 80
SWIDTH 632 0
DWIDTH 20 0
BBX 18 23 1 0
BITMAP
7FFC00
FFFE00
FFFF00
FFFF80
FFFFC0
FC1FC0
FC0FC0
FC07C0
FC07C0
FC0FC0
FC1FC0
FFFFC0
FFFF80
FFFF80
FFFE00
FFFC00
FFE000
FC0000
FC0000
FC0000
FC0000
FC0000
780000
ENDCHAR
STARTCHAR Q
ENCODING 81
SWIDTH 830 0
DWIDTH 27 0
BBX 25 24 1 0
BITMAP
007C0000
03FF8000
07FFC000
1FFFE000
1FFFF000
3FFFF800
7F83FC00
7F01FC00
FE00FC00
FC007E00
FC007E00
FC007E00
FC007E00
FC007E00
FC007E00
FC007E00
FE00FC00
7F01FC00
7FC7FE00
3FFFFF00
1FFFFF80
0FFFFF80
07FFDF00
01FF0F00
ENDCHAR
STARTCHAR R
ENCODING 82
SWIDTH 631 0
DWIDTH 20 0
BBX 19 23 1 0
BITMAP
7FFC00
FFFE00
FFFF00
FFFF80
FFFFC0
FC1FC0
FC0FC0
FC07C0
FC07C0
FC0FC0
FC1FC0
FFFFC0
FFFF80
FFFF80
FFFF00
FFFF80
FFFF80
FC1FC0
FC0FC0
FC0FC0
FC07E0
FC07C0
780380
ENDCHAR
STARTCHAR S
ENCODING 83
SWIDTH 583 0
DWIDTH 19 0
BBX 17 24 1 0
BITMAP
03E000
1FFC00
3FFE00
7FFF00
7FFE00
FF7E00
FC1C00
FC0000
FC0000
7F8000
7FF800
3FFE00
1FFF00
0FFF00
01FF80
003F80
701F80
F81F80
FE3F80
FFFF00
FFFF00
7FFE00
3FFC00
0FF000
ENDCHAR
STARTCHAR T
ENCODING 84
SWIDTH 731 0
DWIDTH 23 0
BBX 23 23 0 0
BITMAP
7FFFFE
FFFFFE
7FFFFE
7FFFFE
007C00
007C00
007C00
007C00
007C00
007C00
007C00
007C00
007C00
007C00
007C00
007C00
007C00
007C00
007C00
007C00
007C00
007C00
003C00
ENDCHAR
STARTCHAR U
ENCODING 85
SWIDTH 726 0
DWIDTH 23 0
BBX 21 23 1 0
BITMAP
7C00F8
FC01F8
FC01F8
FC01F8
FC01F8
FC01F8
FC01F8
FC01F8
FC01F8
FC01F8
FC01F8
FC01F8
FC01F8
FC01F8
FC01F8
7E03F0
7F03F0
7F8FF0
3FFFE0
1FFFE0
0FFFC0
07FF00
03FE00
ENDCHAR
STARTCHAR V
ENCODING 86
SWIDTH 783 0
DWIDTH 25 0
BBX 25 24 0 0
BITMAP
18000C00
7C001F00
FC001F80
7E003F00
7E003F00
7F007F00
3F007E00
3F80FE00
1F80FC00
1F80FC00
0FC1F800
0FC1F800
07E3F000
07E3F000
03F7E000
03F7E000
01FFC000
01FFC000
00FF8000
00FF8000
007F0000
007F0000
003E0000
001C0000
ENDCHAR
STARTCHAR W
ENCODING 87
SWIDTH 999 0
DWIDTH 32 0
BBX 31 24 0 0
BITMAP
08000018
7C03C03E
FC07E03E
7E07E07E
7E07E07E
7E0FF07E
3F0FF0FC
3F0FF0FC
3F1FF8FC
1F9FF9F8
1F9FF9F8
1FBFFDF8
0FBFFFF0
0FFE7FF0
0FFE7FF0
07FE7FE0
07FC3FE0
07FC3FE0
03FC3FC0
03F81FC0
03F81FC0
01F81F80
01F00F80
00E00700
ENDCHAR
STARTCHAR X
ENCODING 88
SWIDTH 741 0
DWIDTH 24 0
BBX 23 24 0 0
BITMAP
380018
7C003C
7E007E
FF00FE
7F81FE
3FC3FC
1FC7F8
0FEFF0
07FFE0
03FFC0
01FF80
01FF00
00FF00
01FF80
03FFC0
07FFE0
0FFFF0
1FE7F8
3FC3FC
7F81FC
7F00FE
FE007E
7C007E
38003C
ENDCHAR
STARTCHAR Y
ENCODING 89
SWIDTH 686 0
DWIDTH 22 0
BBX 21 24 0 0
BITMAP
180060
7C00F8
7C01F8
FE01F8
7F03F8
3F03F0
3F87F0
1FCFE0
0FCFC0
0FFFC0
07FF80
03FF00
03FF00
01FE00
00FC00
00FC00
00FC00
00FC00
00FC00
00FC00
00FC00
00FC00
00FC00
007800
ENDCHAR
STARTCHAR Z
ENCODING 90
SWIDTH 643 0
DWIDTH 21 0
BBX 19 23 1 0
BITMAP
FFFFC0
FFFFC0
FFFFC0
FFFFC0
FFFF80
003F80
007F00
00FE00
00FE00
01FC00
03F800
07F000
07F000
0FE000
1FC000
1FC000
3F8000
7F0000
FFFFC0
FFFFE0
FFFFE0
FFFFE0
7FFFC0
ENDCHAR
STARTCHAR bracketleft
ENCODING 91
SWIDTH 348 0
DWIDTH 11 0
BBX 10 32 1 -7
BITMAP
7F80
FFC0
FFC0
FFC0
FF80
F800
F800
F800
F800
F800
F800
F800
F800
F800
F800
F800
F800
F800
F800
F800
F800
F800
F800
F800
F800
F800
F800
F800
FF80
FFC0
FFC0
7F80
ENDCHAR
STARTCHAR backslash
ENCODING 92
SWIDTH 528 0
DWIDTH 17 0
BBX 16 27 0 -2
BITMAP
3800
7C00
FC00
7E00
7E00
3F00
3F00
1F80
1F80
0FC0
0FC0
07E0
07E0
03E0
03F0
01F0
01F8
00F8
00FC
00FC
007E
007E
003F
003F
001F
001F
000C
ENDCHAR
STARTCHAR bracketright
ENCODING 93
SWIDTH 348 0
DWIDTH 11 0
BBX 10 32 0 -7
BITMAP
7F80
7FC0
FFC0
7FC0
7FC0
07C0
07C0
07C0
07C0
07C0
07C0
07C0
07C0
07C0
07C0
07C0
07C0
07C0
07C0
07C0
07C0
07C0
07C0
07C0
07C0
07C0
07C0
07C0
7FC0
FFC0
FFC0
7F80
ENDCHAR
STARTCHAR asciicircum
ENCODING 94
SWIDTH 526 0
DWIDTH 17 0
BBX 15 9 1 8
BITMAP
0380
07C0
0FE0
1FF0
3FF8
7EFC
FC7E
783C
3018
ENDCHAR
STARTCHAR underscore
ENCODING 95
SWIDTH 826 0
DWIDTH 26 0
BBX 26 4 0 -7
BITMAP
7FFFFFC0
FFFFFFC0
FFFFFFC0
7FFFFFC0
ENDCHAR
STARTCHAR grave
ENCODING 96
SWIDTH 482 0
DWIDTH 15 0
BBX 10 7 3 18
BITMAP
6000
7C00
FF80
FFC0
7F80
1F80
0100
ENDCHAR
STARTCHAR a
ENCODING 97
SWIDTH 596 0
DWIDTH 19 0
BBX 17 17 1 0
BITMAP
078F00
0FFF80
3FFF80
7FFF80
7FFF80
FFFF80
FC3F80
FC1F80
F81F80
FC1F80
FC3F80
FFFF80
7FFF80
7FFF80
3FFF80
1FFF80
07CF00
ENDCHAR
STARTCHAR b
ENCODING 98
SWIDTH 592 0
DWIDTH 19 0
BBX 17 25 1 0
BITMAP
780000
FC0000
FC0000
FC0000
FC0000
FC0000
FC0000
FC0000
FCE000
FFF800
FFFE00
FFFE00
FFFF00
FFFF80
FE1F80
FC1F80
FC0F80
FC1F80
FE1F80
FFFF80
FFFF00
FFFF00
FFFE00
FFFC00
79F000
ENDCHAR
STARTCHAR c
ENCODING 99
SWIDTH 517 0
DWIDTH 17 0
BBX 15 17 1 0
BITMAP
07F0
0FF8
3FFE
7FFE
7FFC
FFFC
FC18
FC00
FC00
FC00
FC10
FFFC
7FFC
7FFE
3FFC
1FFC
07F0
ENDCHAR
STARTCHAR d
ENCODING 100
SWIDTH 598 0
DWIDTH 19 0
BBX 17 25 1 0
BITMAP
000F00
001F80
001F80
001F80
001F80
001F80
001F80
001F80
039F80
0FFF80
1FFF80
3FFF80
7FFF80
7FFF80
FE3F80
FC1F80
FC1F80
FC1F80
FC3F80
FFFF80
7FFF80
3FFF80
3FFF80
1FFF80
07CF00
ENDCHAR
STARTCHAR e
ENCODING 101
SWIDTH 573 0
DWIDTH 18 0
BBX 17 17 1 0
BITMAP
07F800
1FFC00
3FFE00
7FFF00
7FFF00
FE1F00
FC1F80
FFFF00
FFFF00
FFFF00
FC0000
FC0000
7FFE00
7FFE00
3FFF00
1FFE00
0FFC00
ENDCHAR
STARTCHAR f
ENCODING 102
SWIDTH 450 0
DWIDTH 14 0
BBX 14 25 0 0
BITMAP
00F0
03F8
07F8
0FF8
0FF8
0FF0
1F80
1F80
3FF8
7FFC
FFFC
FFFC
7FFC
3FF8
1F80
1F80
1F80
1F80
1F80
1F80
1F80
1F80
1F80
0F80
0F00
ENDCHAR
STARTCHAR g
ENCODING 103
SWIDTH 585 0
DWIDTH 19 0
BBX 16 24 1 -7
BITMAP
078F
1FFF
3FFF
7FFF
7FFF
FFFF
FC3F
F81F
F81F
FC3F
FC3F
FFFF
7FFF
3FFF
1FFF
0FDF
001F
001F
3C3F
3FFF
7FFE
7FFC
3FF8
0FF0
ENDCHAR
STARTCHAR h
ENCODING 104
SWIDTH 605 0
DWIDTH 19 0
BBX 17 25 1 0
BITMAP
780000
FC0000
FC0000
FC0000
FC0000
FC0000
FC0000
FC0000
FCF000
FFFC00
FFFE00
FFFF00
FFFF00
FFFF80
FE1F80
FC1F80
FC1F80
FC1F80
FC1F80
FC1F80
FC1F80
FC1F80
FC1F80
FC0F80
780F00
ENDCHAR
STARTCHAR i
ENCODING 105
SWIDTH 255 0
DWIDTH 8 0
BBX 6 25 1 0
BITMAP
78
FC
FC
FC
FC
78
00
00
78
FC
FC
FC
FC
FC
FC
FC
FC
FC
FC
FC
FC
FC
FC
FC
78
ENDCHAR
STARTCHAR j
ENCODING 106
SWIDTH 252 0
DWIDTH 8 0
BBX 11 32 -4 -7
BITMAP
03C0
07E0
07E0
07E0
07E0
03C0
0000
0000
03C0
07E0
07E0
07E0
07E0
07E0
07E0
07E0
07E0
07E0
07E0
07E0
07E0
07E0
07E0
07E0
07E0
07E0
0FC0
FFC0
FFC0
FF80
FF00
FC00
ENDCHAR
STARTCHAR k
ENCODING 107
SWIDTH 536 0
DWIDTH 17 0
BBX 16 25 1 0
BITMAP
7800
FC00
FC00
FC00
FC00
FC00
FC00
FC00
FC00
FC38
FC7C
FCFC
FDFE
FFFC
FFF8
FFE0
FFC0
FFE0
FFF8
FFFC
FDFE
FCFF
FC7E
FC3E
781C
ENDCHAR
STARTCHAR l
ENCODING 108
SWIDTH 327 0
DWIDTH 10 0
BBX 9 25 1 0
BITMAP
7800
FC00
FC00
FC00
FC00
FC00
FC00
FC00
FC00
FC00
FC00
FC00
FC00
FC00
FC00
FC00
FC00
FC00
FC00
FE00
FF80
7F80
7F80
7F80
1F80
ENDCHAR
STARTCHAR m
ENCODING 109
SWIDTH 851 0
DWIDTH 27 0
BBX 25 17 1 0
BITMAP
78F07800
FFF8FE00
FFFDFF00
FFFFFF00
FFFFFF00
FFFFFF80
FC7F1F80
FC3F1F80
FC3E1F80
FC3E1F80
FC3E1F80
FC3E1F80
FC3E1F80
FC3E1F80
FC3E1F80
FC3E1F80
783E0F00
ENDCHAR
STARTCHAR n
ENCODING 110
SWIDTH 606 0
DWIDTH 19 0
BBX 17 17 1 0
BITMAP
78F000
FFFC00
FFFE00
FFFF00
FFFF00
FFFF80
FE1F80
FC1F80
FC1F80
FC1F80
FC1F80
FC1F80
FC1F80
FC1F80
FC1F80
FC0F80
780F00
ENDCHAR
STARTCHAR o
ENCODING 111
SWIDTH 600 0
DWIDTH 19 0
BBX 17 17 1 0
BITMAP
07F000
1FFC00
3FFE00
7FFF00
7FFF00
FF7F80
FC1F80
FC0F80
F80F80
FC0F80
FC1F80
FF7F80
7FFF00
7FFF00
3FFE00
1FFC00
07F000
ENDCHAR
STARTCHAR p
ENCODING 112
SWIDTH 582 0
DWIDTH 19 0
BBX 17 24 1 -7
BITMAP
78E000
FFF800
FFFC00
FFFE00
FFFF00
FFFF00
FE1F80
FC1F80
FC1F80
FC1F80
FE3F80
FFFF00
FFFF00
FFFE00
FFFC00
FFF800
FCC000
FC0000
FC0000
FC0000
FC0000
FC0000
FC0000
780000
ENDCHAR
STARTCHAR q
ENCODING 113
SWIDTH 582 0
DWIDTH 19 0
BBX 16 24 1 -7
BITMAP
078F
1FFF
3FFF
7FFF
7FFF
FFFF
FC3F
F81F
F81F
FC3F
FC3F
FFFF
7FFF
3FFF
3FFF
0FDF
011F
001F
001F
001F
001F
001F
001F
001F
ENDCHAR
STARTCHAR r
ENCODING 114
SWIDTH 457 0
DWIDTH 15 0
BBX 13 17 1 0
BITMAP
78F0
FFF8
FFF8
FFF8
FFF8
FF70
FC00
FC00
FC00
FC00
FC00
FC00
FC00
FC00
FC00
FC00
7800
ENDCHAR
STARTCHAR s
ENCODING 115
SWIDTH 489 0
DWIDTH 16 0
BBX 14 17 1 0
BITMAP
1FE0
3FF8
7FF8
FFF8
FC70
FC00
7F80
7FF0
7FF8
3FF8
0FFC
60FC
F8FC
FFFC
FFF8
FFF8
3FE0
ENDCHAR
STARTCHAR t
ENCODING 116
SWIDTH 449 0
DWIDTH 14 0
BBX 14 23 0 0
BITMAP
0600
0F80
1F80
1F80
1F80
1F80
7FF8
7FFC
FFFC
FFFC
7FFC
7FF8
1F80
1F80
1F80
1F80
1F80
1FC0
0FF8
0FF8
0FF8
07F8
01F0
ENDCHAR
STARTCHAR u
ENCODING 117
SWIDTH 606 0
DWIDTH 19 0
BBX 17 17 1 0
BITMAP
780F00
FC0F80
FC0F80
FC0F80
FC0F80
FC0F80
FC0F80
FC0F80
FC0F80
FC1F80
FE1F80
7FFF80
7FFF80
3FFF80
3FFF80
1FEF80
07CF00
ENDCHAR
STARTCHAR v
ENCODING 118
SWIDTH 638 0
DWIDTH 20 0
BBX 20 17 0 0
BITMAP
3801C0
7C03E0
FE03F0
7E07F0
7F07E0
3F0FE0
3F8FC0
1F9FC0
0FDF80
0FFF00
07FF00
07FE00
03FE00
03FC00
01F800
00F800
00F000
ENDCHAR
STARTCHAR w
ENCODING 119
SWIDTH 793 0
DWIDTH 25 0
BBX 25 17 0 0
BITMAP
381C0E00
7C3E1F80
FC3F1F80
7E7F1F80
7E7F3F00
3E7FBF00
3FFFBE00
3FFFFE00
1FFFFE00
1FFFFC00
0FF7FC00
0FF7F800
0FF3F800
07E3F800
07E3F000
03E1F000
03C0E000
ENDCHAR
STARTCHAR x
ENCODING 120
SWIDTH 567 0
DWIDTH 18 0
BBX 18 17 0 0
BITMAP
380700
7C0F80
7E1FC0
FF3FC0
7FFF80
3FFF00
1FFE00
0FFC00
07F800
0FFC00
1FFE00
3FFF00
7FFF80
7F3F80
FE1FC0
7C0F80
380700
ENDCHAR
STARTCHAR y
ENCODING 121
SWIDTH 604 0
DWIDTH 19 0
BBX 19 25 0 -8
BITMAP
380380
7C07E0
FE07E0
7E0FE0
7F0FC0
3F0FC0
1F9F80
1FDF80
0FFF00
0FFF00
07FE00
03FE00
03FE00
01FC00
01FC00
01F800
01F800
03F000
03F000
07E000
07E000
07E000
0FC000
07C000
018000
ENDCHAR
STARTCHAR z
ENCODING 122
SWIDTH 586 0
DWIDTH 19 0
BBX 17 17 1 0
BITMAP
7FFE00
7FFF00
7FFF80
FFFF00
7FFF00
3FFE00
01FC00
03F800
07F000
0FE000
3FC000
7FFE00
FFFF80
FFFF80
FFFF80
FFFF80
7FFF00
ENDCHAR
STARTCHAR braceleft
ENCODING 123
SWIDTH 381 0
DWIDTH 12 0
BBX 12 32 0 -7
BITMAP
00E0
03F0
07F0
07F0
0FE0
0F80
0F80
0F80
0F80
0F80
0F80
0F80
0F80
0F80
7F00
7F00
FE00
7F00
3F00
0F80
0F80
0F80
0F80
0F80
0F80
0F80
0F80
0F80
0FE0
07F0
03F0
01E0
ENDCHAR
STARTCHAR bar
ENCODING 124
SWIDTH 217 0
DWIDTH 7 0
BBX 5 32 1 -7
BITMAP
70
F8
F8
F8
F8
F8
F8
F8
F8
F8
F8
F8
F8
F8
F8
F8
F8
F8
F8
F8
F8
F8
F8
F8
F8
F8
F8
F8
F8
F8
F8
70
ENDCHAR
STARTCHAR braceright
ENCODING 125
SWIDTH 381 0
DWIDTH 12 0
BBX 12 32 0 -7
BITMAP
7000
7C00
FE00
7F00
7F00
1F00
1F00
1F00
1F00
1F00
1F00
1F00
1F00
0F00
0FE0
07F0
07F0
0FF0
0FE0
0F00
1F00
1F00
1F00
1F00
1F00
1F00
1F00
1F00
7F00
FE00
FE00
7800
ENDCHAR
STARTCHAR asciitilde
ENCODING 126
SWIDTH 651 0
DWIDTH 21 0
BBX 16 7 2 5
BITMAP
1F0E
7F9F
FFFF
FFFF
FFFE
F1FC
70F8
ENDCHAR
STARTCHAR exclamdown
ENCODING 161
SWIDTH 268 0
DWIDTH 9 0
BBX 6 23 1 -7
BITMAP
7C
FC
FC
FC
7C
38
00
00
78
FC
FC
FC
FC
FC
FC
FC
FC
FC
FC
FC
FC
FC
7C
ENDCHAR
STARTCHAR cent
ENCODING 162
SWIDTH 434 0
DWIDTH 14 0
BBX 12 24 1 -3
BITMAP
0700
0780
0780
0780
0780
0FC0
3FF0
7FF0
7FF0
FFE0
F840
F800
F800
F840
FFE0
7FF0
3FF0
1FE0
0780
0780
0780
0780
0780
0200
ENDCHAR
STARTCHAR sterling
ENCODING 163
SWIDTH 675 0
DWIDTH 22 0
BBX 21 24 0 0
BITMAP
000800
00FF80
03FFE0
07FFF0
07FFF0
0FFFF8
0FC0F0
0F8040
1F8000
1F8000
3FF000
7FFC00
FFFC00
7FFC00
7FF800
07C000
07C000
0FC000
0FC000
1FFFF8
1FFFF8
1FFFF8
1FFFF8
0FFFF8
ENDCHAR
STARTCHAR currency
ENCODING 164
SWIDTH 677 0
DWIDTH 22 0
BBX 20 25 1 0
BITMAP
200040
F000E0
F801F0
FFFFF0
7FFFE0
3FFFC0
3FFF80
3FFFC0
7E0FC0
7C03E0
7C03E0
F803E0
F803E0
F803E0
7C03E0
7C03E0
7E07E0
3FFFC0
3FFFC0
3FFFC0
7FFFE0
FFFFE0
F801F0
F000F0
6000C0
ENDCHAR
STARTCHAR yen
ENCODING 165
SWIDTH 677 0
DWIDTH 22 0
BBX 21 24 0 0
BITMAP
100040
3C00F0
7C01F8
FE01F8
7F03F8
3F03F0
3F87E0
1F8FE0
0FCFC0
0FFF80
07FF80
03FF00
07FF00
0FFFC0
1FFFC0
0FFFC0
00FC00
00FC00
0FFFC0
1FFFC0
0FFFC0
00FC00
00FC00
007800
ENDCHAR
STARTCHAR brokenbar
ENCODING 166
SWIDTH 215 0
DWIDTH 7 0
BBX 5 32 1 -7
BITMAP
70
F0
F8
F8
F8
F8
F8
F8
F8
F8
F8
F8
F8
F8
70
00
00
00
F0
F8
F8
F8
F8
F8
F8
F8
F8
F8
F8
F8
F8
70
ENDCHAR
STARTCHAR section
ENCODING 167
SWIDTH 560 0
DWIDTH 18 0
BBX 16 32 1 -7
BITMAP
0100
1FF8
3FFC
7FFE
7FFE
FFFC
FC38
FC00
FC00
7F80
7FF8
3FFC
7FFE
7FFF
FCFF
FC3F
FC1F
FE3F
7FFF
7FFE
3FFE
1FFE
03FF
007F
301F
781F
FC3F
FFFF
FFFE
7FFC
3FF8
0FE0
ENDCHAR
STARTCHAR dieresis
ENCODING 168
SWIDTH 489 0
DWIDTH 16 0
BBX 15 6 1 19
BITMAP
783C
FC7C
FC7E
FC7E
FC7E
783C
ENDCHAR
STARTCHAR copyright
ENCODING 169
SWIDTH 711 0
DWIDTH 23 0
BBX 21 21 1 3
BITMAP
01FC00
0FFF80
1FFFC0
3C01E0
7070F0
71FC70
E3FE30
E7FE38
E70438
EF0038
EF0038
EF0038
E70038
E7FC38
E3FE30
71FC70
7070F0
3C01E0
1FFFC0
0FFF80
03FC00
ENDCHAR
STARTCHAR ordfeminine
ENCODING 170
SWIDTH 445 0
DWIDTH 14 0
BBX 12 12 1 11
BITMAP
0E60
3FF0
7FF0
FFF0
F9F0
F0F0
F0F0
F1F0
FFF0
7FF0
3FF0
1FF0
ENDCHAR
STARTCHAR guillemotleft
ENCODING 171
SWIDTH 668 0
DWIDTH 21 0
BBX 21 17 0 0
BITMAP
008060
01E0F0
03E1F8
07E3F8
0FC7F0
1F8FE0
3F1FC0
7E3F80
FC3F00
7E3F80
7F1FC0
3F8FE0
1FC7F0
0FE3F8
07E1F8
03E0F0
00C060
ENDCHAR
STARTCHAR logicalnot
ENCODING 172
SWIDTH 526 0
DWIDTH 17 0
BBX 16 10 0 4
BITMAP
7FFF
7FFF
FFFF
7FFF
7FFF
000F
000F
000F
000F
000F
ENDCHAR
STARTCHAR registered
ENCODING 174
SWIDTH 711 0
DWIDTH 23 0
BBX 21 21 1 3
BITMAP
01FC00
0FFF80
1FFFC0
3C01E0
71F0F0
73FC70
E3FE30
E39E38
E38E38
E38E38
E3FE38
E3FC38
E3FE38
E39E38
E38E30
738F70
7004F0
3C01E0
1FFFC0
0FFF80
03FC00
ENDCHAR
STARTCHAR degree
ENCODING 176
SWIDTH 407 0
DWIDTH 13 0
BBX 11 12 1 13
BITMAP
0400
3F80
7FC0
FFE0
F1E0
F1E0
F0E0
F1E0
FFE0
7FC0
3F80
1F00
ENDCHAR
STARTCHAR plusminus
ENCODING 177
SWIDTH 505 0
DWIDTH 16 0
BBX 14 17 1 0
BITMAP
0780
0780
07C0
7FFC
FFFC
FFFC
FFFC
FFFC
07C0
0780
0780
0000
0000
FFFC
FFFC
FFFC
7FFC
ENDCHAR
STARTCHAR twosuperior
ENCODING 178
SWIDTH 455 0
DWIDTH 15 0
BBX 13 17 1 7
BITMAP
1F80
3FC0
7FE0
FFF0
FFF0
F8F0
F8F0
F1F0
63F0
07F0
1FE0
7FC0
FFF0
FFF8
FFF8
FFF8
7FF8
ENDCHAR
STARTCHAR threesuperior
ENCODING 179
SWIDTH 457 0
DWIDTH 15 0
BBX 13 17 1 7
BITMAP
0F80
3FE0
7FF0
7FF0
F9F0
78F0
21F0
07F0
0FE0
07F0
71F8
F0F8
F8F8
FFF0
7FF0
7FE0
1FC0
ENDCHAR
STARTCHAR acute
ENCODING 180
SWIDTH 605 0
DWIDTH 19 0
BBX 9 7 5 18
BITMAP
0300
1F80
FF80
FF80
FF80
FC00
6000
ENDCHAR
STARTCHAR mu
ENCODING 181
SWIDTH 601 0
DWIDTH 19 0
BBX 17 24 1 -7
BITMAP
780F00
FC1F80
FC1F80
FC1F80
FC1F80
FC1F80
FC1F80
FC1F80
FC1F80
FC1F80
FE1F80
FFFF80
FFFF80
FFFF80
FFFF80
FFEF80
FDCF00
FC0000
FC0000
FC0000
FC0000
FC0000
FC0000
780000
ENDCHAR
STARTCHAR paragraph
ENCODING 182
SWIDTH 614 0
DWIDTH 20 0
BBX 17 27 1 -7
BITMAP
07FE00
7FFF80
FFFF80
FFFF80
FFCF80
FFCF80
FFCF80
FFCF80
FFCF80
7FCF80
7FCF80
07CF80
03CF80
03CF80
03CF80
03CF80
03CF80
03CF80
03CF80
03CF80
03CF80
03CF80
03CF80
03CF80
03CF80
03CF80
03C780
ENDCHAR
STARTCHAR periodcentered
ENCODING 183
SWIDTH 237 0
DWIDTH 8 0
BBX 6 6 1 7
BITMAP
78
FC
FC
FC
FC
F8
ENDCHAR
STARTCHAR cedilla
ENCODING 184
SWIDTH 559 0
DWIDTH 18 0
BBX 6 7 6 -6
BITMAP
70
F8
FC
1C
FC
F8
F0
ENDCHAR
STARTCHAR onesuperior
ENCODING 185
SWIDTH 321 0
DWIDTH 10 0
BBX 9 17 0 7
BITMAP
0700
0F80
1F80
3F80
7F80
FF80
7F80
7F80
0F80
0F80
0F80
0F80
0F80
0F80
0F80
0F80
0780
ENDCHAR
STARTCHAR ordmasculine
ENCODING 186
SWIDTH 439 0
DWIDTH 14 0
BBX 12 13 1 10
BITMAP
0600
3FC0
7FE0
7FE0
F9F0
F0F0
F0F0
F0F0
F9F0
7FF0
7FE0
3FC0
0600
ENDCHAR
STARTCHAR guillemotright
ENCODING 187
SWIDTH 669 0
DWIDTH 21 0
BBX 21 17 0 0
BITMAP
100800
781E00
FC3F00
7E3F80
7F1FC0
3F8FE0
1FC7F0
0FE3F8
07E1F8
07E3F8
0FC7F0
1F8FE0
3F1FC0
7E3F80
7C3F00
781E00
300C00
ENDCHAR
STARTCHAR onequarter
ENCODING 188
SWIDTH 786 0
DWIDTH 25 0
BBX 21 26 2 -1
BITMAP
080380
1C0380
3C0780
FC0700
FC0E00
FC0E00
5C1C00
1C1C00
1C3800
1C3800
1C7000
1C7000
1CE7B8
1CE738
01CF38
03CF38
038F38
078E38
071FF8
0F1FF8
0E1FF8
1C0038
1C0038
380038
380038
300000
ENDCHAR
STARTCHAR onehalf
ENCODING 189
SWIDTH 804 0
DWIDTH 26 0
BBX 22 26 2 -1
BITMAP
080380
1C0380
3C0780
FC0700
FC0E00
FC0E00
5C1C00
1C1C00
1C3800
1C3800
1C7000
1C7080
1CE7E0
1CEFF0
01CFF8
03DE78
039E38
079E78
0700F8
0F03F0
0E07E0
1C0FF8
1C1FFC
381FFC
380FFC
300000
ENDCHAR
STARTCHAR threequarters
ENCODING 190
SWIDTH 842 0
DWIDTH 27 0
BBX 23 26 2 -1
BITMAP
0800C0
3F00E0
7F81C0
FF81C0
F3C380
638380
1F8700
1F8F00
4FCE00
E3DE00
F3DC00
FFBC00
7FB9DE
3E7BDE
0073DE
00E3DE
00E3DE
01C79E
01C7FE
0387FE
0387FE
07001E
07001E
0E001E
0E000E
0C0000
ENDCHAR
STARTCHAR questiondown
ENCODING 191
SWIDTH 511 0
DWIDTH 16 0
BBX 15 24 1 -7
BITMAP
0780
0FC0
0FC0
0FC0
0FC0
07C0
0000
0000
0300
07C0
07C0
1FC0
7FC0
7F80
FE00
F800
F83C
F83E
FC7E
FFFC
7FFC
3FF8
1FF0
0FE0
ENDCHAR
STARTCHAR Agrave
ENCODING 192
SWIDTH 765 0
DWIDTH 24 0
BBX 24 31 0 0
BITMAP
00C000
01F800
01FF00
01FF00
01FF00
003F00
000600
000000
003C00
007E00
007E00
007F00
00FF00
00FF80
01FF80
01FFC0
03FFC0
03F7E0
07E7E0
07E3F0
0FC3F0
0FFFF8
1FFFF8
1FFFFC
3FFFFC
3FFFFE
7F007E
7E007F
FE003F
7C003F
3C001E
ENDCHAR
STARTCHAR Aacute
ENCODING 193
SWIDTH 765 0
DWIDTH 24 0
BBX 24 31 0 0
BITMAP
000380
003FC0
007FC0
007FC0
007F80
007800
000000
000000
003C00
007E00
007E00
007F00
00FF00
00FF80
01FF80
01FFC0
03FFC0
03F7E0
07E7E0
07E3F0
0FC3F0
0FFFF8
1FFFF8
1FFFFC
3FFFFC
3FFFFE
7F007E
7E007F
FE003F
7C003F
3C001E
ENDCHAR
STARTCHAR Acircumflex
ENCODING 194
SWIDTH 765 0
DWIDTH 24 0
BBX 24 31 0 0
BITMAP
003E00
01FFC0
03FFE0
03FFE0
03F7C0
01C180
000000
000000
003C00
007E00
007E00
007F00
00FF00
00FF80
01FF80
01FFC0
03FFC0
03F7E0
07E7E0
07E3F0
0FC3F0
0FFFF8
1FFFF8
1FFFFC
3FFFFC
3FFFFE
7F007E
7E007F
FE003F
7C003F
3C001E
ENDCHAR
STARTCHAR Atilde
ENCODING 195
SWIDTH 765 0
DWIDTH 24 0
BBX 24 31 0 0
BITMAP
00F9C0
01FFE0
03FFC0
03FFC0
039F80
008200
000000
000000
003C00
007E00
007E00
007F00
00FF00
00FF80
01FF80
01FFC0
03FFC0
03F7E0
07E7E0
07E3F0
0FC3F0
0FFFF8
1FFFF8
1FFFFC
3FFFFC
3FFFFE
7F007E
7E007F
FE003F
7C003F
3C001E
ENDCHAR
STARTCHAR Adieresis
ENCODING 196
SWIDTH 765 0
DWIDTH 24 0
BBX 24 31 0 0
BITMAP
03C3E0
07E3E0
07E3F0
07E3F0
07E3E0
018180
000000
000000
003C00
007E00
007E00
007F00
00FF00
00FF80
01FF80
01FFC0
03FFC0
03F7E0
07E7E0
07E3F0
0FC3F0
0FFFF8
1FFFF8
1FFFFC
3FFFFC
3FFFFE
7F007E
7E007F
FE003F
7C003F
3C001E
ENDCHAR
STARTCHAR Aring
ENCODING 197
SWIDTH 765 0
DWIDTH 24 0
BBX 24 29 0 0
BITMAP
003E00
007F00
00E300
00C300
00C300
00F700
007E00
003E00
007E00
007F00
00FF00
00FF80
01FF80
01FFC0
03FFC0
03F7E0
07E7E0
07E3F0
0FC3F0
0FFFF8
1FFFF8
1FFFFC
3FFFFC
3FFFFE
7F007E
7E007F
FE003F
7C003F
3C001E
ENDCHAR
STARTCHAR AE
ENCODING 198
SWIDTH 1148 0
DWIDTH 37 0
BBX 36 23 0 0
BITMAP
00007FFFF0
0000FFFFF0
0001FFFFF0
0003FFFFF0
0007FFFFF0
0007FE0000
000FFE0000
001FFE0000
003FBFFC00
007FBFFF00
00FF3FFF00
01FE3FFF00
03FC3FFF00
07FFFFFF00
0FFFFE0000
1FFFFE0000
1FFFFE0000
3FFFFFFFC0
7F003FFFF0
FE003FFFF0
FE003FFFF0
7C003FFFF0
78001FFFE0
ENDCHAR
STARTCHAR Ccedilla
ENCODING 199
SWIDTH 679 0
DWIDTH 22 0
BBX 20 30 1 -6
BITMAP
003C00
01FF80
07FFE0
0FFFF0
3FFFF0
3FFFF0
7F83E0
7F00C0
FE0000
FC0000
FC0000
FC0000
F80000
FC0000
FC0000
FC0000
7E0000
7F01C0
7FE7E0
3FFFF0
1FFFF0
0FFFE0
03FFC0
00FF00
007C00
007E00
000E00
007E00
007C00
007C00
ENDCHAR
STARTCHAR Egrave
ENCODING 200
SWIDTH 638 0
DWIDTH 20 0
BBX 19 31 1 0
BITMAP
030000
07E000
07FC00
07FC00
07FC00
00FC00
001800
000000
7FFFC0
FFFFE0
FFFFE0
FFFFE0
FFFFC0
FC0000
FC0000
FC0000
FFF800
FFFE00
FFFE00
FFFE00
FFFE00
FFFE00
FC0000
FC0000
FC0000
FFFF80
FFFFC0
FFFFE0
FFFFE0
FFFFC0
7FFFC0
ENDCHAR
STARTCHAR Eacute
ENCODING 201
SWIDTH 638 0
DWIDTH 20 0
BBX 19 31 1 0
BITMAP
001C00
01FE00
03FE00
07FE00
03F800
03C000
000000
000000
7FFFC0
FFFFE0
FFFFE0
FFFFE0
FFFFC0
FC0000
FC0000
FC0000
FFF800
FFFE00
FFFE00
FFFE00
FFFE00
FFFE00
FC0000
FC0000
FC0000
FFFF80
FFFFC0
FFFFE0
FFFFE0
FFFFC0
7FFFC0
ENDCHAR
STARTCHAR Ecircumflex
ENCODING 202
SWIDTH 638 0
DWIDTH 20 0
BBX 19 31 1 0
BITMAP
01F000
0FFE00
1FFF00
1FFF00
1FBE00
0E0E00
000000
000000
7FFFC0
FFFFE0
FFFFE0
FFFFE0
FFFFC0
FC0000
FC0000
FC0000
FFF800
FFFE00
FFFE00
FFFE00
FFFE00
FFFE00
FC0000
FC0000
FC0000
FFFF80
FFFFC0
FFFFE0
FFFFE0
FFFFC0
7FFFC0
ENDCHAR
STARTCHAR Edieresis
ENCODING 203
SWIDTH 638 0
DWIDTH 20 0
BBX 19 31 1 0
BITMAP
1F0F00
3F1F80
3F1F80
3F1F80
1F1F00
040400
000000
000000
7FFFC0
FFFFE0
FFFFE0
FFFFE0
FFFFC0
FC0000
FC0000
FC0000
FFF800
FFFE00
FFFE00
FFFE00
FFFE00
FFFE00
FC0000
FC0000
FC0000
FFFF80
FFFFC0
FFFFE0
FFFFE0
FFFFC0
7FFFC0
ENDCHAR
STARTCHAR Igrave
ENCODING 204
SWIDTH 267 0
DWIDTH 9 0
BBX 10 31 -2 0
BITMAP
2000
7E00
7F80
FFC0
7FC0
0F80
0180
0000
0F80
1F80
1F80
1F80
1F80
1F80
1F80
1F80
1F80
1F80
1F80
1F80
1F80
1F80
1F80
1F80
1F80
1F80
1F80
1F80
1F80
0F80
0F00
ENDCHAR
STARTCHAR Iacute
ENCODING 205
SWIDTH 269 0
DWIDTH 9 0
BBX 9 31 1 0
BITMAP
0700
3F80
FF80
FF80
FF00
F800
0000
0000
7C00
FC00
FC00
FC00
FC00
FC00
FC00
FC00
FC00
FC00
FC00
FC00
FC00
FC00
FC00
FC00
FC00
FC00
FC00
FC00
FC00
7C00
7800
ENDCHAR
STARTCHAR Icircumflex
ENCODING 206
SWIDTH 270 0
DWIDTH 9 0
BBX 13 31 -2 0
BITMAP
0F80
7FF0
FFF8
FFF8
FDF0
7060
0000
0000
0F80
1F80
1F80
1F80
1F80
1F80
1F80
1F80
1F80
1F80
1F80
1F80
1F80
1F80
1F80
1F80
1F80
1F80
1F80
1F80
1F80
0F80
0F00
ENDCHAR
STARTCHAR Idieresis
ENCODING 207
SWIDTH 268 0
DWIDTH 9 0
BBX 15 31 -3 0
BITMAP
787C
FC7E
FC7E
FC7E
FC7C
1010
0000
0000
07C0
07C0
07C0
07C0
07C0
07C0
07C0
07C0
07C0
07C0
07C0
07C0
07C0
07C0
07C0
07C0
07C0
07C0
07C0
07C0
07C0
07C0
07C0
ENDCHAR
STARTCHAR Eth
ENCODING 208
SWIDTH 775 0
DWIDTH 25 0
BBX 23 23 1 0
BITMAP
1FFF00
1FFFC0
1FFFE0
1FFFF0
1FFFF8
1F07FC
1F01FC
1F00FC
1F007E
FFE07E
FFE07E
FFE07E
FFE07E
1F007E
1F00FE
1F00FC
1F03FC
1FFFF8
1FFFF0
1FFFF0
1FFFC0
1FFF80
1FFE00
ENDCHAR
STARTCHAR Ntilde
ENCODING 209
SWIDTH 720 0
DWIDTH 23 0
BBX 21 31 1 0
BITMAP
03E300
07FF80
0FFF80
0FFF00
073E00
020800
000000
000000
7C01F0
FC01F8
FE01F8
FF01F8
FF81F8
FF81F8
FFC1F8
FFE1F8
FFF1F8
FFF1F8
FDF9F8
FDFDF8
FCFFF8
FC7FF8
FC3FF8
FC3FF8
FC1FF8
FC0FF8
FC07F8
FC07F8
FC03F8
FC01F8
7800F0
ENDCHAR
STARTCHAR Ograve
ENCODING 210
SWIDTH 775 0
DWIDTH 25 0
BBX 23 31 1 0
BITMAP
018000
03F000
03FE00
03FE00
03FE00
007E00
000C00
007C00
03FF80
07FFC0
1FFFE0
1FFFF0
3FFFF8
7F83FC
7F01FC
FE00FC
FC007E
FC007E
FC007E
FC007E
FC007E
FC007E
FC007E
FE00FC
7F01FC
7FC7F8
3FFFF8
1FFFF0
0FFFE0
07FFC0
01FF00
ENDCHAR
STARTCHAR Oacute
ENCODING 211
SWIDTH 775 0
DWIDTH 25 0
BBX 23 31 1 0
BITMAP
000700
007F00
00FF80
01FF80
00FE00
00F000
000000
007C00
03FF80
07FFC0
1FFFE0
1FFFF0
3FFFF8
7F83FC
7F01FC
FE00FC
FC007E
FC007E
FC007E
FC007E
FC007E
FC007E
FC007E
FE00FC
7F01FC
7FC7F8
3FFFF8
1FFFF0
0FFFE0
07FFC0
01FF00
ENDCHAR
STARTCHAR Ocircumflex
ENCODING 212
SWIDTH 775 0
DWIDTH 25 0
BBX 23 31 1 0
BITMAP
007C00
03FF80
07FFC0
07FFC0
03EF80
038380
000000
007C00
03FF80
07FFC0
1FFFE0
1FFFF0
3FFFF8
7F83FC
7F01FC
FE00FC
FC007E
FC007E
FC007E
FC007E
FC007E
FC007E
FC007E
FE00FC
7F01FC
7FC7F8
3FFFF8
1FFFF0
0FFFE0
07FFC0
01FF00
ENDCHAR
STARTCHAR Otilde
ENCODING 213
SWIDTH 775 0
DWIDTH 25 0
BBX 23 31 1 0
BITMAP
00F1C0
01FFC0
03FFC0
03FFC0
039F80
018600
000000
007C00
03FF80
07FFC0
1FFFE0
1FFFF0
3FFFF8
7F83FC
7F01FC
FE00FC
FC007E
FC007E
FC007E
FC007E
FC007E
FC007E
FC007E
FE00FC
7F01FC
7FC7F8
3FFFF8
1FFFF0
0FFFE0
07FFC0
01FF00
ENDCHAR
STARTCHAR Odieresis
ENCODING 214
SWIDTH 775 0
DWIDTH 25 0
BBX 23 31 1 0
BITMAP
0787C0
0FC7C0
0FC7C0
0FC7C0
0FC7C0
020300
000000
007C00
03FF80
07FFC0
1FFFE0
1FFFF0
3FFFF8
7F83FC
7F01FC
FE00FC
FC007E
FC007E
FC007E
FC007E
FC007E
FC007E
FC007E
FE00FC
7F01FC
7FC7F8
3FFFF8
1FFFF0
0FFFE0
07FFC0
01FF00
ENDCHAR
STARTCHAR multiply
ENCODING 215
SWIDTH 521 0
DWIDTH 17 0
BBX 15 15 1 1
BITMAP
7018
F83C
FC7E
FEFE
7FFC
3FF8
1FF0
0FE0
1FF0
3FF8
7FFC
FEFE
FC7E
F83C
7018
ENDCHAR
STARTCHAR Oslash
ENCODING 216
SWIDTH 775 0
DWIDTH 25 0
BBX 23 27 1 -2
BITMAP
0001C0
007BE0
03FFF0
07FFE0
1FFFE0
1FFFF0
3FFFF8
7F8FFC
7F1FFC
FE1FFC
FC3F7E
FC3E7E
F87E7E
F87E7E
FCFC7E
FCFC7E
FDF87E
FFF8FC
7FF1FC
7FFFF8
3FFFF8
1FFFF0
0FFFE0
0FFFC0
0FFF00
0F8000
030000
ENDCHAR
STARTCHAR Ugrave
ENCODING 217
SWIDTH 726 0
DWIDTH 23 0
BBX 21 31 1 0
BITMAP
060000
07C000
0FF800
0FFC00
07F800
01F800
003000
000000
7C00F8
FC01F8
FC01F8
FC01F8
FC01F8
FC01F8
FC01F8
FC01F8
FC01F8
FC01F8
FC01F8
FC01F8
FC01F8
FC01F8
FC01F8
7E03F0
7F03F0
7F8FF0
3FFFE0
1FFFE0
0FFFC0
07FF00
03FE00
ENDCHAR
STARTCHAR Uacute
ENCODING 218
SWIDTH 726 0
DWIDTH 23 0
BBX 21 31 1 0
BITMAP
000700
007F00
00FF80
01FF80
00FE00
00F000
000000
000000
7C00F8
FC01F8
FC01F8
FC01F8
FC01F8
FC01F8
FC01F8
FC01F8
FC01F8
FC01F8
FC01F8
FC01F8
FC01F8
FC01F8
FC01F8
7E03F0
7F03F0
7F8FF0
3FFFE0
1FFFE0
0FFFC0
07FF00
03FE00
ENDCHAR
STARTCHAR Ucircumflex
ENCODING 219
SWIDTH 726 0
DWIDTH 23 0
BBX 21 31 1 0
BITMAP
007800
03FF00
07FF80
07FF80
07FF80
030300
000000
000000
7C00F8
FC01F8
FC01F8
FC01F8
FC01F8
FC01F8
FC01F8
FC01F8
FC01F8
FC01F8
FC01F8
FC01F8
FC01F8
FC01F8
FC01F8
7E03F0
7F03F0
7F8FF0
3FFFE0
1FFFE0
0FFFC0
07FF00
03FE00
ENDCHAR
STARTCHAR Udieresis
ENCODING 220
SWIDTH 726 0
DWIDTH 23 0
BBX 21 31 1 0
BITMAP
0F8780
0F8FC0
1F8FC0
1F8FC0
0F8FC0
020200
000000
000000
7C00F8
FC01F8
FC01F8
FC01F8
FC01F8
FC01F8
FC01F8
FC01F8
FC01F8
FC01F8
FC01F8
FC01F8
FC01F8
FC01F8
FC01F8
7E03F0
7F03F0
7F8FF0
3FFFE0
1FFFE0
0FFFC0
07FF00
03FE00
ENDCHAR
STARTCHAR Yacute
ENCODING 221
SWIDTH 686 0
DWIDTH 22 0
BBX 21 31 0 0
BITMAP
000E00
007F00
01FF00
01FF00
01FE00
00F000
000000
180060
7C00F8
7C01F8
FE01F8
7F03F8
3F03F0
3F87F0
1FCFE0
0FCFC0
0FFFC0
07FF80
03FF00
03FF00
01FE00
00FC00
00FC00
00FC00
00FC00
00FC00
00FC00
00FC00
00FC00
00FC00
007800
ENDCHAR
STARTCHAR Thorn
ENCODING 222
SWIDTH 634 0
DWIDTH 20 0
BBX 18 23 1 0
BITMAP
7C0000
FC0000
FC0000
FFF800
FFFE00
FFFF00
FFFF80
FFFFC0
FC3FC0
FC0FC0
FC07C0
FC07C0
FC07C0
FC0FC0
FFFFC0
FFFF80
FFFF80
FFFF00
FFFC00
FFF000
FC0000
FC0000
780000
ENDCHAR
STARTCHAR germandbls
ENCODING 223
SWIDTH 633 0
DWIDTH 20 0
BBX 18 25 1 -1
BITMAP
07F800
3FFC00
7FFE00
7FFF00
7FFF00
FC3F00
FC3E00
FC7E00
FCFC00
FCF800
FCF800
FCF800
FCFE00
FC7F00
FC3F80
FC1FC0
FC07C0
FC07C0
FC47C0
FCFFC0
FCFFC0
FDFFC0
FDFF80
FCFF00
780000
ENDCHAR
STARTCHAR agrave
ENCODING 224
SWIDTH 596 0
DWIDTH 19 0
BBX 17 25 1 0
BITMAP
020000
07C000
0FF800
0FFC00
07FC00
01F800
001000
000000
078F00
0FFF80
3FFF80
7FFF80
7FFF80
FFFF80
FC3F80
FC1F80
F81F80
FC1F80
FC3F80
FFFF80
7FFF80
7FFF80
3FFF80
1FFF80
07CF00
ENDCHAR
STARTCHAR aacute
ENCODING 225
SWIDTH 596 0
DWIDTH 19 0
BBX 17 25 1 0
BITMAP
001800
00FC00
07FC00
07FC00
07FC00
07E000
030000
000000
078F00
0FFF80
3FFF80
7FFF80
7FFF80
FFFF80
FC3F80
FC1F80
F81F80
FC1F80
FC3F80
FFFF80
7FFF80
7FFF80
3FFF80
1FFF80
07CF00
ENDCHAR
STARTCHAR acircumflex
ENCODING 226
SWIDTH 596 0
DWIDTH 19 0
BBX 17 25 1 0
BITMAP
00E000
07FC00
1FFF00
1FFF00
1FFF00
0F1E00
000000
000000
078F00
0FFF80
3FFF80
7FFF80
7FFF80
FFFF80
FC3F80
FC1F80
F81F80
FC1F80
FC3F80
FFFF80
7FFF80
7FFF80
3FFF80
1FFF80
07CF00
ENDCHAR
STARTCHAR atilde
ENCODING 227
SWIDTH 596 0
DWIDTH 19 0
BBX 17 25 1 0
BITMAP
038400
0FEE00
0FFF00
1FFE00
1EFE00
0C7800
000000
000000
078F00
0FFF80
3FFF80
7FFF80
7FFF80
FFFF80
FC3F80
FC1F80
F81F80
FC1F80
FC3F80
FFFF80
7FFF80
7FFF80
3FFF80
1FFF80
07CF00
ENDCHAR
STARTCHAR adieresis
ENCODING 228
SWIDTH 596 0
DWIDTH 19 0
BBX 17 25 1 0
BITMAP
1E0F00
3F1F00
3F1F80
3F1F80
3F1F00
1E0F00
000000
000000
078F00
0FFF80
3FFF80
7FFF80
7FFF80
FFFF80
FC3F80
FC1F80
F81F80
FC1F80
FC3F80
FFFF80
7FFF80
7FFF80
3FFF80
1FFF80
07CF00
ENDCHAR
STARTCHAR aring
ENCODING 229
SWIDTH 596 0
DWIDTH 19 0
BBX 17 24 1 0
BITMAP
00E000
01F000
031800
031800
03B800
01F000
000000
078F00
0FFF80
3FFF80
7FFF80
7FFF80
FFFF80
FC3F80
FC1F80
F81F80
FC1F80
FC3F80
FFFF80
7FFF80
7FFF80
3FFF80
1FFF80
07CF00
ENDCHAR
STARTCHAR ae
ENCODING 230
SWIDTH 910 0
DWIDTH 29 0
BBX 27 17 1 0
BITMAP
0FE0FE00
3FFBFF80
7FFFFFC0
FFFFFFC0
FFFFFFE0
7C7FC7E0
383F83E0
003FFFE0
1FBFFFE0
7FFFFFC0
FFFF8000
F81F8000
F83FFFC0
FFFFFFC0
FFFFFFC0
7FF3FFC0
3FC0FF00
ENDCHAR
STARTCHAR ccedilla
ENCODING 231
SWIDTH 524 0
DWIDTH 17 0
BBX 15 23 1 -6
BITMAP
07F0
1FFC
3FFE
7FFE
7FFE
FFFC
FC18
FC00
FC00
FC00
FC10
FFFC
7FFE
7FFE
3FFE
1FFC
07F0
07E0
03F0
0070
03F0
07E0
03C0
ENDCHAR
STARTCHAR egrave
ENCODING 232
SWIDTH 573 0
DWIDTH 18 0
BBX 17 25 1 0
BITMAP
040000
0FC000
0FF000
0FF800
0FF800
01F000
003000
000000
07F800
1FFC00
3FFE00
7FFF00
7FFF00
FE1F00
FC1F80
FFFF00
FFFF00
FFFF00
FC0000
FC0000
7FFE00
7FFE00
3FFF00
1FFE00
0FFC00
ENDCHAR
STARTCHAR eacute
ENCODING 233
SWIDTH 573 0
DWIDTH 18 0
BBX 17 25 1 0
BITMAP
001800
00F800
07FC00
0FFC00
07F800
07E000
020000
000000
07F800
1FFC00
3FFE00
7FFF00
7FFF00
FE1F00
FC1F80
FFFF00
FFFF00
FFFF00
FC0000
FC0000
7FFE00
7FFE00
3FFF00
1FFE00
0FFC00
ENDCHAR
STARTCHAR ecircumflex
ENCODING 234
SWIDTH 573 0
DWIDTH 18 0
BBX 17 25 1 0
BITMAP
01C000
0FF800
3FFE00
3FFE00
3FFE00
1E3C00
000000
000000
07F800
1FFC00
3FFE00
7FFF00
7FFF00
FE1F00
FC1F80
FFFF00
FFFF00
FFFF00
FC0000
FC0000
7FFE00
7FFE00
3FFF00
1FFE00
0FFC00
ENDCHAR
STARTCHAR edieresis
ENCODING 235
SWIDTH 573 0
DWIDTH 18 0
BBX 17 25 1 0
BITMAP
3C1C00
7E3E00
7E3E00
7E3E00
7E3E00
3C3E00
000000
000000
07F800
1FFC00
3FFE00
7FFF00
7FFF00
FE1F00
FC1F80
FFFF00
FFFF00
FFFF00
FC0000
FC0000
7FFE00
7FFE00
3FFF00
1FFE00
0FFC00
ENDCHAR
STARTCHAR igrave
ENCODING 236
SWIDTH 255 0
DWIDTH 8 0
BBX 10 25 -2 0
BITMAP
2000
7E00
7F80
FFC0
7FC0
0F80
0180
0000
0F00
1F80
1F80
1F80
1F80
1F80
1F80
1F80
1F80
1F80
1F80
1F80
1F80
1F80
1F80
1F80
0F00
ENDCHAR
STARTCHAR iacute
ENCODING 237
SWIDTH 255 0
DWIDTH 8 0
BBX 9 25 1 0
BITMAP
0300
1F00
FF80
FF80
FF00
FC00
6000
0000
7800
FC00
FC00
FC00
FC00
FC00
FC00
FC00
FC00
FC00
FC00
FC00
FC00
FC00
FC00
FC00
7800
ENDCHAR
STARTCHAR icircumflex
ENCODING 238
SWIDTH 255 0
DWIDTH 8 0
BBX 13 25 -2 0
BITMAP
0600
3FC0
FFF0
FFF8
FFF0
70F0
0000
0000
0F00
1F80
1F80
1F80
1F80
1F80
1F80
1F80
1F80
1F80
1F80
1F80
1F80
1F80
1F80
1F80
0F00
ENDCHAR
STARTCHAR idieresis
ENCODING 239
SWIDTH 255 0
DWIDTH 8 0
BBX 14 25 -3 0
BITMAP
7838
F87C
FC7C
FC7C
FC7C
787C
0000
0000
0780
0FC0
0FC0
0FC0
0FC0
0FC0
0FC0
0FC0
0FC0
0FC0
0FC0
0FC0
0FC0
0FC0
0FC0
0FC0
0780
ENDCHAR
STARTCHAR eth
ENCODING 240
SWIDTH 585 0
DWIDTH 19 0
BBX 17 26 1 0
BITMAP
006000
027000
07E000
0FE000
0FF000
07F800
07FC00
0F7C00
063E00
001F00
0FEF00
1FFF00
3FFF00
7FFF80
7FFF80
FC3F80
FC1F80
F81F80
F81F80
FC1F80
FE3F00
7FFF00
7FFE00
3FFE00
1FF800
07F000
ENDCHAR
STARTCHAR ntilde
ENCODING 241
SWIDTH 606 0
DWIDTH 19 0
BBX 17 25 1 0
BITMAP
070800
0FDE00
1FFE00
3FFE00
1FFC00
0C7800
000000
000000
78F000
FFFC00
FFFE00
FFFF00
FFFF00
FFFF80
FE1F80
FC1F80
FC1F80
FC1F80
FC1F80
FC1F80
FC1F80
FC1F80
FC1F80
FC0F80
780F00
ENDCHAR
STARTCHAR ograve
ENCODING 242
SWIDTH 600 0
DWIDTH 19 0
BBX 17 25 1 0
BITMAP
060000
0FC000
0FF800
0FF800
0FF800
01F800
003000
000000
07F000
1FFC00
3FFE00
7FFF00
7FFF00
FF7F80
FC1F80
FC0F80
F80F80
FC0F80
FC1F80
FF7F80
7FFF00
7FFF00
3FFE00
1FFC00
07F000
ENDCHAR
STARTCHAR oacute
ENCODING 243
SWIDTH 600 0
DWIDTH 19 0
BBX 17 25 1 0
BITMAP
001800
00FC00
07FC00
07FC00
07FC00
07E000
030000
000000
07F000
1FFC00
3FFE00
7FFF00
7FFF00
FF7F80
FC1F80
FC0F80
F80F80
FC0F80
FC1F80
FF7F80
7FFF00
7FFF00
3FFE00
1FFC00
07F000
ENDCHAR
STARTCHAR ocircumflex
ENCODING 244
SWIDTH 600 0
DWIDTH 19 0
BBX 17 25 1 0
BITMAP
00C000
07F800
1FFE00
3FFE00
1FFE00
1E3C00
000000
000000
07F000
1FFC00
3FFE00
7FFF00
7FFF00
FF7F80
FC1F80
FC0F80
F80F80
FC0F80
FC1F80
FF7F80
7FFF00
7FFF00
3FFE00
1FFC00
07F000
ENDCHAR
STARTCHAR otilde
ENCODING 245
SWIDTH 600 0
DWIDTH 19 0
BBX 17 25 1 0
BITMAP
070C00
0FDE00
1FFE00
3FFE00
3FFC00
1C7800
000000
000000
07F000
1FFC00
3FFE00
7FFF00
7FFF00
FF7F80
FC1F80
FC0F80
F80F80
FC0F80
FC1F80
FF7F80
7FFF00
7FFF00
3FFE00
1FFC00
07F000
ENDCHAR
STARTCHAR odieresis
ENCODING 246
SWIDTH 600 0
DWIDTH 19 0
BBX 17 25 1 0
BITMAP
3C1E00
7E3E00
7E3F00
7E3F00
7E3F00
3C1E00
000000
000000
07F000
1FFC00
3FFE00
7FFF00
7FFF00
FF7F80
FC1F80
FC0F80
F80F80
FC0F80
FC1F80
FF7F80
7FFF00
7FFF00
3FFE00
1FFC00
07F000
ENDCHAR
STARTCHAR divide
ENCODING 247
SWIDTH 503 0
DWIDTH 16 0
BBX 14 17 1 0
BITMAP
0780
0FC0
0FC0
07C0
0380
0000
FFFC
FFFC
FFFC
FFFC
7FF8
0000
0780
0FC0
0FC0
07C0
0780
ENDCHAR
STARTCHAR oslash
ENCODING 248
SWIDTH 600 0
DWIDTH 19 0
BBX 17 27 1 -5
BITMAP
000C00
001F00
001F80
003F00
003F00
07FE00
1FFE00
3FFE00
7FFF00
7FFF00
FF7F80
FC1F80
FC0F80
F80F80
FC0F80
FC1F80
FF3F80
7FFF00
7FFF00
3FFE00
3FFC00
3FF000
7E0000
7E0000
7C0000
7C0000
180000
ENDCHAR
STARTCHAR ugrave
ENCODING 249
SWIDTH 606 0
DWIDTH 19 0
BBX 17 25 1 0
BITMAP
060000
0FC000
0FF800
0FF800
0FF800
01F800
003000
000000
780F00
FC0F80
FC0F80
FC0F80
FC0F80
FC0F80
FC0F80
FC0F80
FC0F80
FC1F80
FE1F80
7FFF80
7FFF80
3FFF80
3FFF80
1FEF80
07CF00
ENDCHAR
STARTCHAR uacute
ENCODING 250
SWIDTH 606 0
DWIDTH 19 0
BBX 17 25 1 0
BITMAP
000800
00FC00
03FC00
07FE00
07FC00
03E000
030000
000000
780F00
FC0F80
FC0F80
FC0F80
FC0F80
FC0F80
FC0F80
FC0F80
FC0F80
FC1F80
FE1F80
7FFF80
7FFF80
3FFF80
3FFF80
1FEF80
07CF00
ENDCHAR
STARTCHAR ucircumflex
ENCODING 251
SWIDTH 606 0
DWIDTH 19 0
BBX 17 25 1 0
BITMAP
00C000
07F800
1FFE00
3FFE00
1FFE00
1E3C00
000000
000000
780F00
FC0F80
FC0F80
FC0F80
FC0F80
FC0F80
FC0F80
FC0F80
FC0F80
FC1F80
FE1F80
7FFF80
7FFF80
3FFF80
3FFF80
1FEF80
07CF00
ENDCHAR
STARTCHAR udieresis
ENCODING 252
SWIDTH 606 0
DWIDTH 19 0
BBX 17 25 1 0
BITMAP
1C1E00
3E3F00
7E3F00
7E3F00
3E3F00
3C1E00
000000
000000
780F00
FC0F80
FC0F80
FC0F80
FC0F80
FC0F80
FC0F80
FC0F80
FC0F80
FC1F80
FE1F80
7FFF80
7FFF80
3FFF80
3FFF80
1FEF80
07CF00
ENDCHAR
STARTCHAR yacute
ENCODING 253
SWIDTH 604 0
DWIDTH 19 0
BBX 19 33 0 -8
BITMAP
000400
007E00
01FE00
03FE00
03FE00
03F000
018000
000000
380380
7C07E0
FE07E0
7E0FE0
7F0FC0
3F0FC0
1F9F80
1FDF80
0FFF00
0FFF00
07FE00
03FE00
03FE00
01FC00
01FC00
01F800
01F800
03F000
03F000
07E000
07E000
07E000
0FC000
07C000
018000
ENDCHAR
STARTCHAR thorn
ENCODING 254
SWIDTH 580 0
DWIDTH 19 0
BBX 17 32 1 -7
BITMAP
780000
F80000
F80000
FC0000
FC0000
FC0000
FC0000
FC0000
FDE000
FFF800
FFFC00
FFFE00
FFFF00
FFFF00
FC3F80
FC1F80
FC1F80
FC1F80
FC3F80
FFFF00
FFFF00
FFFE00
FFFC00
FFF800
F9E000
F80000
F80000
F80000
F80000
F80000
F80000
780000
ENDCHAR
STARTCHAR ydieresis
ENCODING 255
SWIDTH 604 0
DWIDTH 19 0
BBX 19 33 0 -8
BITMAP
0E0700
1F0F80
1F9F80
1F9F80
1F0F80
1F0F00
000000
000000
380380
7C07E0
FE07E0
7E0FE0
7F0FC0
3F0FC0
1F9F80
1FDF80
0FFF00
0FFF00
07FE00
03FE00
03FE00
01FC00
01FC00
01F800
01F800
03F000
03F000
07E000
07E000
07E000
0FC000
07C000
018000
ENDCHAR
STARTCHAR dotlessi
ENCODING 305
SWIDTH 255 0
DWIDTH 8 0
BBX 6 17 1 0
BITMAP
78
FC
FC
FC
FC
FC
FC
FC
FC
FC
FC
FC
FC
FC
FC
FC
78
ENDCHAR
STARTCHAR Lslash
ENCODING 321
SWIDTH 687 0
DWIDTH 22 0
BBX 20 23 1 0
BITMAP
0F8000
1F8000
1F8000
1F8000
1F8000
1F8000
1F8000
1FB800
1FFC00
1FFC00
FFFC00
FFE000
FF8000
FF8000
1F8000
1F8000
1F8000
1F8000
1FFFE0
1FFFF0
1FFFF0
0FFFF0
0FFFF0
ENDCHAR
STARTCHAR lslash
ENCODING 322
SWIDTH 468 0
DWIDTH 15 0
BBX 15 25 0 0
BITMAP
0780
0FC0
0FC0
0FC0
0FC0
0FC0
0FC0
0FC0
0FC0
0FDC
0FFC
0FFE
7FFC
FFF0
7FC0
7FC0
0FC0
0FC0
0FC0
0FE0
0FF8
0FF8
07F8
07F8
01F0
ENDCHAR
STARTCHAR OE
ENCODING 338
SWIDTH 1092 0
DWIDTH 35 0
BBX 33 23 1 0
BITMAP
01FFFFFF80
07FFFFFF80
0FFFFFFF80
1FFFFFFF80
3FFFFFFF80
7F81F00000
7F01F00000
FE01F00000
FC01FFF000
FC01FFF800
FC01FFFC00
F801FFFC00
FC01FFFC00
FC01FFF800
FC01F00000
7E01F00000
7F01F00000
3FFFFFFF00
3FFFFFFF80
1FFFFFFF80
0FFFFFFF80
03FFFFFF80
00FFFFFF00
ENDCHAR
STARTCHAR oe
ENCODING 339
SWIDTH 944 0
DWIDTH 30 0
BBX 28 17 1 0
BITMAP
07F07F00
1FFDFFC0
3FFFFFE0
7FFFFFF0
7FFFFFF0
FF7FE1F0
FC1FC1F0
FC0FFFF0
F80FFFF0
FC0FFFE0
FC1FC000
FE3FC000
7FFFFFE0
7FFFFFE0
3FFFFFF0
1FFDFFE0
07F07F80
ENDCHAR
STARTCHAR Scaron
ENCODING 352
SWIDTH 583 0
DWIDTH 19 0
BBX 17 31 1 0
BITMAP
1C3C00
3FFC00
3FFE00
3FFE00
0FF800
01C000
000000
03E000
1FFC00
3FFE00
7FFF00
7FFE00
FF7E00
FC1C00
FC0000
FC0000
7F8000
7FF800
3FFE00
1FFF00
0FFF00
01FF80
003F80
701F80
F81F80
FE3F80
FFFF00
FFFF00
7FFE00
3FFC00
0FF000
ENDCHAR
STARTCHAR scaron
ENCODING 353
SWIDTH 489 0
DWIDTH 16 0
BBX 14 25 1 0
BITMAP
3020
7DF0
FFF8
FFF8
7FF0
0F80
0000
0000
1FE0
3FF8
7FF8
FFF8
FC70
FC00
7F80
7FF0
7FF8
3FF8
0FFC
60FC
F8FC
FFFC
FFF8
FFF8
3FE0
ENDCHAR
STARTCHAR Ydieresis
ENCODING 376
SWIDTH 686 0
DWIDTH 22 0
BBX 21 31 0 0
BITMAP
0F87C0
0F8FC0
0FCFC0
0F8FC0
0F87C0
060100
000000
180060
7C00F8
7C01F8
FE01F8
7F03F8
3F03F0
3F87F0
1FCFE0
0FCFC0
0FFFC0
07FF80
03FF00
03FF00
01FE00
00FC00
00FC00
00FC00
00FC00
00FC00
00FC00
00FC00
00FC00
00FC00
007800
ENDCHAR
STARTCHAR Zcaron
ENCODING 381
SWIDTH 643 0
DWIDTH 21 0
BBX 19 31 1 0
BITMAP
0E1E00
1FFE00
1FFF00
1FFF00
07FC00
00E000
000000
000000
FFFFC0
FFFFC0
FFFFC0
FFFFC0
FFFF80
003F80
007F00
00FE00
00FE00
01FC00
03F800
07F000
07F000
0FE000
1FC000
1FC000
3F8000
7F0000
FFFFC0
FFFFE0
FFFFE0
FFFFE0
7FFFC0
ENDCHAR
STARTCHAR zcaron
ENCODING 382
SWIDTH 586 0
DWIDTH 19 0
BBX 17 25 1 0
BITMAP
0C0C00
1F7C00
3FFE00
3FFE00
1FFC00
03E000
000000
000000
7FFE00
7FFF00
7FFF80
FFFF00
7FFF00
3FFE00
01FC00
03F800
07F000
0FE000
3FC000
7FFE00
FFFF80
FFFF80
FFFF80
FFFF80
7FFF00
ENDCHAR
STARTCHAR florin
ENCODING 402
SWIDTH 529 0
DWIDTH 17 0
BBX 16 31 0 -7
BITMAP
000F
003F
00FF
00FF
01FF
01FE
01F0
03F0
0FFF
1FFF
1FFF
1FFF
1FFF
1FFC
03E0
03E0
07E0
07E0
07E0
07E0
07E0
07C0
07C0
07C0
07C0
0FC0
7FC0
FF80
FF80
FF00
FC00
ENDCHAR
STARTCHAR circumflex
ENCODING 710
SWIDTH 603 0
DWIDTH 19 0
BBX 13 6 3 19
BITMAP
0300
1FE0
7FF8
FFF8
7FF8
78F0
ENDCHAR
STARTCHAR caron
ENCODING 711
SWIDTH 600 0
DWIDTH 19 0
BBX 13 6 3 19
BITMAP
3020
7DF0
FFF8
FFF8
7FF0
0F80
ENDCHAR
STARTCHAR dotaccent
ENCODING 729
SWIDTH 285 0
DWIDTH 9 0
BBX 6 6 2 22
BITMAP
F8
F8
FC
FC
F8
20
ENDCHAR
STARTCHAR ring
ENCODING 730
SWIDTH 378 0
DWIDTH 12 0
BBX 8 8 2 21
BITMAP
7E
7F
C3
C3
C3
FF
7E
3C
ENDCHAR
STARTCHAR ogonek
ENCODING 731
SWIDTH 570 0
DWIDTH 18 0
BBX 6 7 6 -6
BITMAP
78
FC
FC
C0
F8
FC
78
ENDCHAR
STARTCHAR tilde
ENCODING 732
SWIDTH 584 0
DWIDTH 19 0
BBX 13 6 2 19
BITMAP
0C30
3F78
7FF8
7FF8
FFF0
31E0
ENDCHAR
STARTCHAR endash
ENCODING 8211
SWIDTH 561 0
DWIDTH 18 0
BBX 17 5 0 6
BITMAP
7FFF80
7FFF80
FFFF80
7FFF80
7FFF80
ENDCHAR
STARTCHAR emdash
ENCODING 8212
SWIDTH 693 0
DWIDTH 22 0
BBX 22 5 0 6
BITMAP
7FFFF8
7FFFFC
FFFFFC
7FFFFC
7FFFF8
ENDCHAR
STARTCHAR quoteleft
ENCODING 8216
SWIDTH 237 0
DWIDTH 8 0
BBX 6 11 1 12
BITMAP
3C
3C
70
F0
F0
F8
FC
FC
FC
FC
30
ENDCHAR
STARTCHAR quoteright
ENCODING 8217
SWIDTH 237 0
DWIDTH 8 0
BBX 6 11 1 12
BITMAP
F8
FC
FC
FC
FC
38
38
78
F0
E0
80
ENDCHAR
STARTCHAR quotesinglbase
ENCODING 8218
SWIDTH 237 0
DWIDTH 8 0
BBX 6 11 1 -5
BITMAP
78
FC
FC
FC
FC
7C
38
38
70
F0
E0
ENDCHAR
STARTCHAR quotedblleft
ENCODING 8220
SWIDTH 482 0
DWIDTH 15 0
BBX 14 11 1 12
BITMAP
3C3C
3C78
7070
F0F0
F0E0
F8F8
FCFC
FCFC
FCFC
FCF8
3030
ENDCHAR
STARTCHAR quotedblright
ENCODING 8221
SWIDTH 482 0
DWIDTH 15 0
BBX 14 11 1 12
BITMAP
F8F8
FCFC
FCFC
FCFC
FCF8
3838
3838
7878
F0F0
E0E0
8080
ENDCHAR
STARTCHAR quotedblbase
ENCODING 8222
SWIDTH 482 0
DWIDTH 15 0
BBX 14 11 1 -5
BITMAP
78F8
FCF8
FCFC
FCFC
FCFC
7CF8
3838
3878
7070
F0F0
E0C0
ENDCHAR
STARTCHAR dagger
ENCODING 8224
SWIDTH 527 0
DWIDTH 17 0
BBX 16 30 0 -6
BITMAP
03C0
03E0
03E0
03E0
03E0
03E0
03E0
03E0
7FFF
FFFF
FFFF
7FFF
3FFE
03E0
03E0
03E0
03E0
03E0
03E0
03E0
03E0
03E0
03E0
03E0
03E0
03E0
03E0
03E0
03E0
03E0
ENDCHAR
STARTCHAR daggerdbl
ENCODING 8225
SWIDTH 527 0
DWIDTH 17 0
BBX 16 30 0 -6
BITMAP
03C0
03E0
03E0
03E0
03E0
03E0
03E0
03E0
7FFF
FFFF
FFFF
7FFF
3FFE
03E0
03E0
03E0
03E0
33E4
7FFF
FFFF
FFFF
7FFF
13E4
03E0
03E0
03E0
03E0
03E0
03E0
03E0
ENDCHAR
STARTCHAR bullet
ENCODING 8226
SWIDTH 342 0
DWIDTH 11 0
BBX 9 10 1 5
BITMAP
3E00
7F00
FF80
FF80
FF80
FF80
FF80
FF80
7F00
0C00
ENDCHAR
STARTCHAR ellipsis
ENCODING 8230
SWIDTH 911 0
DWIDTH 29 0
BBX 27 6 1 0
BITMAP
781F03E0
FC1F07E0
FC1F87E0
FC1F87E0
FC1F07E0
781F03E0
ENDCHAR
STARTCHAR perthousand
ENCODING 8240
SWIDTH 1223 0
DWIDTH 39 0
BBX 37 26 1 -1
BITMAP
0000700000
0600700000
3F80F00000
7FC0E00000
7FE1C00000
FBE1C00000
F1E3800000
F0E3800000
F1E7000000
7BE7000000
7FEE000000
3FCE000000
1F9C000000
001C7C07C0
0039FE0FE0
0079FF1FF0
0073FF3FF0
00F3C73C78
00E387BC78
01E387BC78
01C3C7BC78
0383FF3FF8
0381FF1FF0
0701FE0FE0
07007C07C0
0600000000
ENDCHAR
STARTCHAR guilsinglleft
ENCODING 8249
SWIDTH 383 0
DWIDTH 12 0
BBX 12 17 0 0
BITMAP
00C0
01E0
03F0
07F0
0FE0
1FC0
3F80
7F00
FE00
7F00
7F80
3FC0
1FE0
07F0
03F0
01E0
00C0
ENDCHAR
STARTCHAR guilsinglright
ENCODING 8250
SWIDTH 383 0
DWIDTH 12 0
BBX 12 17 0 0
BITMAP
3000
7C00
7E00
FF00
7F80
3FC0
1FE0
0FE0
07F0
0FF0
1FE0
3FC0
7F80
7F00
FE00
7C00
3800
ENDCHAR
STARTCHAR fraction
ENCODING 8260
SWIDTH 433 0
DWIDTH 14 0
BBX 16 26 1 -1
BITMAP
0006
000F
000E
001E
001C
0038
0038
0070
0070
00E0
00E0
01C0
01C0
0380
0380
0700
0F00
0E00
1E00
1C00
3C00
3800
7000
7000
E000
6000
ENDCHAR
STARTCHAR Euro
ENCODING 8364
SWIDTH 612 0
DWIDTH 20 0
BBX 19 25 0 0
BITMAP
001FC0
00FFE0
03FFE0
07FFE0
07FFE0
0FFFC0
0FC000
0FC000
7FFF00
7FFF80
FFFF80
7FFF80
1F8000
1F8000
7FFF80
FFFF80
7FFF80
0F8000
0FC000
0FFF80
07FFE0
07FFE0
03FFE0
01FFE0
007FC0
ENDCHAR
STARTCHAR trademark
ENCODING 8482
SWIDTH 840 0
DWIDTH 27 0
BBX 26 12 0 8
BITMAP
7FF78380
FFF787C0
7FF7CFC0
3FE7EFC0
0F07FFC0
0F07FFC0
0F07FFC0
0F07FFC0
0F07BBC0
0F0793C0
0F0783C0
0F0783C0
ENDCHAR
STARTCHAR minus
ENCODING 8722
SWIDTH 581 0
DWIDTH 19 0
BBX 17 5 1 6
BITMAP
FFFF00
FFFF80
FFFF80
FFFF80
7FFF00
ENDCHAR
STARTCHAR f_f
ENCODING 64256
SWIDTH 803 0
DWIDTH 26 0
BBX 25 25 0 0
BITMAP
00F01F00
03F87F00
07F8FF00
0FF8FF00
0FF9FF00
0FF1FE00
1F81F000
1F81F000
7FFFFF00
7FFFFF80
FFFFFF80
FFFFFF80
7FFFFF80
7FFFFF00
1F81F000
1F81F000
1F81F000
1F81F000
1F81F000
1F81F000
1F81F000
1F81F000
1F81F000
0F81F000
0F01F000
ENDCHAR
STARTCHAR fi
ENCODING 64257
SWIDTH 709 0
DWIDTH 23 0
BBX 21 25 0 0
BITMAP
00F070
03F8F8
07F8F8
0FF8F8
0FF8F8
0FF078
1F8000
1F8000
3FF870
7FFCF8
FFFCF8
FFFCF8
7FFCF8
3FF8F8
1F80F8
1F80F8
1F80F8
1F80F8
1F80F8
1F80F8
1F80F8
1F80F8
1F80F8
0F80F8
0F00F8
ENDCHAR
STARTCHAR fl
ENCODING 64258
SWIDTH 774 0
DWIDTH 25 0
BBX 24 25 0 0
BITMAP
00F070
03F8F8
07F8F8
0FF8F8
0FF8F8
0FF0F8
1F80F8
1F80F8
3FF8F8
7FFCF8
FFFCF8
FFFCF8
7FFCF8
3FF8F8
1F80F8
1F80F8
1F80F8
1F80F8
1F80F8
1F80FC
1F80FF
1F80FF
1F80FF
0F807F
0F003F
ENDCHAR
STARTCHAR f_f_i
ENCODING 64259
SWIDTH 1059 0
DWIDTH 34 0
BBX 33 25 0 0
BITMAP
00F01F0400
03F87F1F00
07F8FF1F80
0FF8FF1F80
0FF9FF1F80
0FF1FE0F00
1F81F00000
1F81F00000
7FFFFF0F00
7FFFFF9F00
FFFFFF9F80
FFFFFF9F80
7FFFFF9F80
7FFFFF1F80
1F81F01F80
1F81F01F80
1F81F01F80
1F81F01F80
1F81F01F80
1F81F01F80
1F81F01F80
1F81F01F80
1F81F01F80
0F81F01F80
0F01F00F00
ENDCHAR
STARTCHAR .notdef
ENCODING -1
SWIDTH 500 0
DWIDTH 16 0
BBX 1 1 0 0
BITMAP
00
ENDCHAR
STARTCHAR .null
ENCODING -1
SWIDTH 0 0
DWIDTH 0 0
BBX 1 1 0 0
BITMAP
00
ENDCHAR
STARTCHAR nonmarkingreturn
ENCODING -1
SWIDTH 333 0
DWIDTH 11 0
BBX 1 1 0 0
BITMAP
00
ENDCHAR
STARTCHAR f_t
ENCODING -1
SWIDTH 814 0
DWIDTH 26 0
BBX 26 25 0 0
BITMAP
00F00000
03F80000
07F86000
0FF9F000
0FF9F800
0FF1F800
1F81F800
1F81F800
7FFFFF80
7FFFFF80
FFFFFFC0
FFFFFFC0
7FFFFF80
7FFFFF80
1F81F800
1F81F800
1F81F800
1F81F800
1F81F800
1F81F800
1F81FF00
1F80FF80
1F80FF80
0F807F80
0F001F00
ENDCHAR
STARTCHAR t_t
ENCODING -1
SWIDTH 794 0
DWIDTH 25 0
BBX 25 23 0 0
BITMAP
0600E000
0F81F000
1F83F000
1F83F000
1F83F000
1F83F000
7FFFFF00
7FFFFF80
FFFFFF80
FFFFFF80
7FFFFF80
7FFFFF00
1F83F000
1F83F000
1F83F000
1F83F000
1F83F000
1FC1F800
0FF9FF00
0FF9FF00
0FF8FF00
07F8FF00
01F03E00
ENDCHAR
STARTCHAR l_l
ENCODING -1
SWIDTH 626 0
DWIDTH 20 0
BBX 19 25 1 0
BITMAP
783C00
FC7C00
FC7C00
FC7E00
FC7E00
FC7E00
FC7E00
FC7E00
FC7E00
FC7E00
FC7E00
FC7E00
FC7E00
FC7E00
FC7E00
FC7E00
FC7E00
FC7E00
FC7E00
FE7F80
FF7FC0
7F7FE0
7F3FE0
3F1FC0
1F07C0
ENDCHAR
STARTCHAR j_j
ENCODING -1
SWIDTH 521 0
DWIDTH 17 0
BBX 19 32 -4 -7
BITMAP
0180C0
07E3E0
07E3E0
07E3E0
07E3E0
03C1E0
000000
000000
03C1C0
07E3E0
07E3E0
07E3E0
07E3E0
07E3E0
07E3E0
07E3E0
07E3E0
07E3E0
07E3E0
07E3E0
07E3E0
07E3E0
07E3E0
07E3E0
07E3E0
07E3E0
0FC3E0
FFDFE0
FFDFE0
FF9FC0
FF1FC0
FC1F80
ENDCHAR
ENDFONT
